<?xml version="1.0" encoding="utf-8"?>
<!-- Generator: Adobe Illustrator 23.0.3, SVG Export Plug-In . SVG Version: 6.00 Build 0)  -->
<svg version="1.1" id="Layer_5" xmlns="http://www.w3.org/2000/svg" xmlns:xlink="http://www.w3.org/1999/xlink" x="0px" y="0px"
	 viewBox="0 0 512 512" style="enable-background:new 0 0 512 512;" xml:space="preserve">
<style type="text/css">
	.st0{fill:#DAE6F1;}
	.st1{fill:#FC657E;}
	.st2{fill:#EDF4FC;}
	.st3{fill:#F5C84C;}
	.st4{fill:#3CAADC;}
	.st5{fill:#EF4460;}
	.st6{fill:#87D147;}
	.st7{fill:#969FAA;}
	.st8{fill:#FF826E;}
	.st9{fill:#69D6F4;}
	.st10{fill:#FCD770;}
</style>
<g>
	<path class="st0" d="M189.9,383.3v-8.9c0-3.9,2.6-7,5.8-7c-3.2,0-5.8-3.2-5.8-7v-8.9c0-3.9,2.6-7,5.8-7c-3.2,0-5.8-3.2-5.8-7v-8.9
		c0-3.9,2.6-7,5.8-7c-3.2,0-5.8-3.2-5.8-7v-8.9c0-3.9,2.6-7,5.8-7h12.3c-3.2,0-5.8-3.2-5.8-7v-8.9c0-3.9,2.6-7,5.8-7h43
		c0-5,0-10.1,0-15.2l-45.5,14.9c-3.1,1-6.3-1.2-7.2-4.9l-1.9-8.6c-0.8-3.7,1-7.6,4.1-8.6l50.5-16.6c0-55.3-0.1-113.7-0.1-152.6
		H100.6H78.2c-1,0-1.8-0.7-2.3-1.7c-0.5-1.2-0.3-2.6,0.5-3.6c3.7-4.4,5.9-10.7,5.9-17.3c0-12.5-8.5-22.6-18.8-22.6
		c-10.4,0-18.8,10.1-18.8,22.6v318.1c0,5.8,3.9,10.6,8.8,10.6h142.2C192.5,390.3,189.9,387.1,189.9,383.3L189.9,383.3z"/>
	<path class="st1" d="M193.7,109h-85.2c-5.6,0-10.2,5.5-10.2,12.2v35.3c0,6.7,4.6,12.2,10.2,12.2h85.2c5.6,0,10.2-5.5,10.2-12.2
		v-35.3C203.8,114.5,199.2,109,193.7,109z"/>
	<path class="st2" d="M270.5,38.9L270.5,38.9l-0.5,0c0,0,0,0,0,0s0,0,0,0L63.6,39C74,39,82.4,49.1,82.4,61.6c0,6.7-2.2,13-5.9,17.3
		c-0.8,0.9-1,2.4-0.5,3.6c0.4,1,1.3,1.7,2.3,1.7h192.2v-0.1c10.1-0.3,18.3-10.3,18.3-22.6C288.8,49.2,280.6,39.3,270.5,38.9
		L270.5,38.9z"/>
	<g>
		<path class="st3" d="M264,298.7h-68.3c-3.2,0-5.8,3.2-5.8,7v8.9c0,3.9,2.6,7,5.8,7H264c3.2,0,5.8-3.2,5.8-7v-8.9
			C269.8,301.8,267.2,298.7,264,298.7z"/>
		<path class="st3" d="M264,321.6h-68.3c-3.2,0-5.8,3.2-5.8,7v8.9c0,3.9,2.6,7,5.8,7H264c3.2,0,5.8-3.2,5.8-7v-8.9
			C269.8,324.7,267.2,321.6,264,321.6z"/>
		<path class="st3" d="M264,344.5h-68.3c-3.2,0-5.8,3.2-5.8,7v8.9c0,3.9,2.6,7,5.8,7H264c3.2,0,5.8-3.2,5.8-7v-8.9
			C269.8,347.6,267.2,344.5,264,344.5z"/>
		<path class="st3" d="M264,367.4h-68.3c-3.2,0-5.8,3.2-5.8,7v8.9c0,3.9,2.6,7,5.8,7H264c3.2,0,5.8-3.2,5.8-7v-8.9
			C269.8,370.5,267.2,367.4,264,367.4z"/>
		<path class="st3" d="M276.3,275.8h-68.3c-3.2,0-5.8,3.2-5.8,7v8.9c0,3.9,2.6,7,5.8,7h68.3c3.2,0,5.8-3.2,5.8-7v-8.9
			C282.2,278.9,279.5,275.8,276.3,275.8z"/>
		<path class="st3" d="M266.4,231.8l-65.9,21.6c-3.1,1-4.9,4.9-4.1,8.6l1.9,8.6c0.8,3.7,4.1,5.9,7.2,4.9l65.9-21.6
			c3.1-1,4.9-4.9,4.1-8.6l-1.9-8.6C272.7,233,269.5,230.8,266.4,231.8z"/>
	</g>
	<path d="M195.7,394H53.6c-6.6,0-11.9-6.4-11.9-14.3V61.6c0-14.5,9.8-26.3,21.9-26.3s21.9,11.8,21.9,26.3c0,7-2.2,13.8-6,18.9h171.3
		c1.7,0,3.1,1.7,3.1,3.7l0.1,152.6c0,1.7-0.9,3.2-2.3,3.6L201.4,257c-0.7,0.2-1.3,0.8-1.6,1.5c-0.4,0.8-0.5,1.7-0.3,2.5l1.9,8.6
		c0.2,0.8,0.6,1.5,1.3,2c0.6,0.4,1.4,0.6,2.1,0.3l45.5-14.9c0.9-0.3,1.9-0.1,2.7,0.6c0.8,0.7,1.2,1.8,1.2,3l0,15.2
		c0,1-0.3,1.9-0.9,2.6c-0.6,0.7-1.4,1.1-2.2,1.1h-43c-1.5,0-2.7,1.5-2.7,3.3v8.9c0,1.8,1.2,3.3,2.7,3.3c1.7,0,3.1,1.7,3.1,3.7
		s-1.4,3.7-3.1,3.7h-12.3c-1.5,0-2.7,1.5-2.7,3.3v8.9c0,1.8,1.2,3.3,2.7,3.3c1.7,0,3.1,1.7,3.1,3.7s-1.4,3.7-3.1,3.7
		c-1.5,0-2.7,1.5-2.7,3.3v8.9c0,1.8,1.2,3.3,2.7,3.3c1.7,0,3.1,1.7,3.1,3.7s-1.4,3.7-3.1,3.7c-1.5,0-2.7,1.5-2.7,3.3v8.9
		c0,1.8,1.2,3.3,2.7,3.3c1.7,0,3.1,1.7,3.1,3.7c0,2.1-1.4,3.7-3.1,3.7c-1.5,0-2.7,1.5-2.7,3.3v8.9c0,1.8,1.2,3.3,2.7,3.3
		c1.7,0,3.1,1.7,3.1,3.7S197.4,394,195.7,394z M63.6,42.7c-8.7,0-15.7,8.5-15.7,18.9v318.1c0,3.8,2.5,6.8,5.7,6.8h133.6
		c-0.3-1-0.4-2.1-0.4-3.3v-8.9c0-2.7,0.8-5.1,2.2-7c-1.4-1.9-2.2-4.3-2.2-7v-8.9c0-2.7,0.8-5.1,2.2-7c-1.4-1.9-2.2-4.3-2.2-7v-8.9
		c0-2.7,0.8-5.1,2.2-7c-1.4-1.9-2.2-4.3-2.2-7v-8.9c0-5.9,4-10.7,8.9-10.7h3.8c-0.3-1-0.4-2.1-0.4-3.3v-8.9c0-1.6,0.3-3.1,0.8-4.5
		c-0.1-0.1-0.2-0.1-0.3-0.2c-2.1-1.4-3.6-3.7-4.2-6.5l-1.9-8.6c-0.6-2.8-0.3-5.7,0.9-8.2c1.2-2.5,3.1-4.3,5.4-5l48.2-15.8l-0.1-146
		H78.2c-2.2,0-4.1-1.4-5.1-3.8c-1.1-2.6-0.6-5.8,1.1-7.9c3.2-3.7,5-9.1,5-14.7C79.3,51.2,72.3,42.7,63.6,42.7L63.6,42.7z M227.9,272
		h20l0-6.6L227.9,272z"/>
	<path class="st4" d="M24.6,293.9H22v-3.1c0-2.3-1.6-4.2-3.5-4.2s-3.5,1.9-3.5,4.2v3.1h-2.6c-1.9,0-3.5,1.9-3.5,4.2
		c0,2.3,1.6,4.2,3.5,4.2h2.6v3.1c0,2.3,1.6,4.2,3.5,4.2s3.5-1.9,3.5-4.2v-3.1h2.6c1.9,0,3.5-1.9,3.5-4.2
		C28.1,295.8,26.5,293.9,24.6,293.9z"/>
	<path class="st5" d="M48.1,12.1c-1.7,0.4-2.8,2.2-2.8,4.1c0,1.9,1.1,3.7,2.8,4.1c2.3,0.5,4.2-1.6,4.2-4.1
		C52.3,13.6,50.4,11.6,48.1,12.1z"/>
	<path class="st6" d="M267.9,125.2c-1.7,0.4-2.8,2.2-2.8,4.1c0,2.2,1.5,4.2,3.5,4.2c1.9,0,3.5-1.9,3.5-4.2
		C272,126.8,270.2,124.7,267.9,125.2L267.9,125.2z"/>
	<path class="st6" d="M28.4,331.1c-2.3-0.5-4.2,1.6-4.2,4.1c0,2.2,1.5,4.2,3.5,4.2c1.9,0,3.5-1.9,3.5-4.2
		C31.2,333.2,30,331.5,28.4,331.1z"/>
	<path class="st3" d="M289.8,168.6c-5-1.1-8.9-5.7-9.8-11.6c0-0.3-0.4-0.3-0.4,0c-0.9,5.8-4.9,10.4-9.8,11.6c-0.2,0.1-0.2,0.5,0,0.5
		c5,1.1,8.9,5.7,9.8,11.6c0,0.3,0.4,0.3,0.4,0c0.9-5.8,4.9-10.4,9.8-11.6C290,169,290,168.6,289.8,168.6L289.8,168.6z"/>
	<path class="st3" d="M30.4,44.8c-3.1-0.7-5.5-3.6-6.1-7.2c0-0.2-0.2-0.2-0.3,0c-0.6,3.6-3,6.5-6.1,7.2c-0.2,0-0.2,0.3,0,0.3
		c3.1,0.7,5.5,3.6,6.1,7.2c0,0.2,0.2,0.2,0.3,0c0.6-3.6,3-6.5,6.1-7.2C30.6,45.1,30.6,44.9,30.4,44.8z"/>
	<path d="M270.5,88H78.2c-2.2,0-4.1-1.4-5.1-3.8c-1.1-2.6-0.6-5.8,1.1-7.9c3.2-3.7,5-9.1,5-14.7c0-10.4-7-18.9-15.7-18.9
		c-1.7,0-3.1-1.7-3.1-3.7c0-2.1,1.4-3.7,3.1-3.7l206.9-0.1c0.2,0,0.4,0,0.5,0.1c11.7,0.7,20.8,12.1,20.8,26.3
		c0,14-8.9,25.3-20.4,26.3C271.2,87.9,270.8,88,270.5,88L270.5,88z M79.6,80.5h190.1c0.2-0.1,0.5-0.1,0.8-0.1
		c8.6-0.3,15.3-8.6,15.3-18.8c0-10.3-6.7-18.6-15.3-18.8c-0.1,0-0.2,0-0.3,0H270L78.9,42.7c4.1,4.8,6.7,11.5,6.7,18.9
		C85.5,68.7,83.4,75.4,79.6,80.5z"/>
	<path d="M133.9,120.8h-19.1c-0.7,0-1.2,0.7-1.2,1.5v3.5c0,0.8,0.6,1.5,1.2,1.5h6.5v28.1c0,0.8,0.6,1.5,1.2,1.5h3.6
		c0.7,0,1.2-0.7,1.2-1.5v-28.1h6.5c0.7,0,1.2-0.7,1.2-1.5v-3.5C135.2,121.5,134.6,120.8,133.9,120.8L133.9,120.8z"/>
	<path d="M160.8,154.5l-10.1-32.5c-0.2-0.6-0.6-1-1.2-1h-4c-0.5,0-1,0.4-1.2,1l-10.2,32.5c-0.1,0.5-0.1,1,0.1,1.4
		c0.2,0.4,0.6,0.6,1,0.6h3.8c0.5,0,1-0.4,1.2-1l2-6.7h10.4l2,6.7c0.2,0.6,0.6,1,1.2,1h3.8c0.4,0,0.8-0.2,1-0.6
		C160.9,155.5,161,155,160.8,154.5L160.8,154.5z M150.8,142.6h-6.5l3.3-10.8L150.8,142.6z"/>
	<path d="M186.3,154.6l-8.3-15.7l8-15.8c0.2-0.5,0.2-1,0-1.5c-0.2-0.5-0.6-0.8-1.1-0.8H181c-0.4,0-0.8,0.3-1.1,0.7l-5.3,10.8
		l-5.7-10.8c-0.2-0.4-0.6-0.7-1.1-0.7h-4.3c-0.5,0-0.9,0.3-1.1,0.8c-0.2,0.5-0.2,1.1,0,1.5l8.1,15.5l-8,16.1c-0.2,0.5-0.2,1,0,1.5
		c0.2,0.5,0.6,0.8,1.1,0.8h4.1c0.4,0,0.9-0.3,1.1-0.7l5.3-11l5.8,11c0.2,0.4,0.6,0.7,1,0.7h4.2c0.5,0,0.9-0.3,1.1-0.8
		C186.6,155.6,186.6,155,186.3,154.6L186.3,154.6z"/>
	<path d="M193.7,172.4h-85.2c-7.3,0-13.3-7.2-13.3-15.9v-35.3c0-8.8,5.9-15.9,13.3-15.9h85.2c7.3,0,13.3,7.2,13.3,15.9v35.3
		C206.9,165.3,201,172.4,193.7,172.4z M108.5,112.7c-3.9,0-7.1,3.8-7.1,8.5v35.3c0,4.7,3.2,8.5,7.1,8.5h85.2c3.9,0,7.1-3.8,7.1-8.5
		v-35.3c0-4.7-3.2-8.5-7.1-8.5H108.5z"/>
	<path d="M264,325.3h-68.3c-4.9,0-8.9-4.8-8.9-10.7v-8.9c0-5.9,4-10.7,8.9-10.7H264c4.9,0,8.9,4.8,8.9,10.7v8.9
		C272.9,320.5,268.9,325.3,264,325.3L264,325.3z M195.7,302.4c-1.5,0-2.7,1.5-2.7,3.3v8.9c0,1.8,1.2,3.3,2.7,3.3H264
		c1.5,0,2.7-1.5,2.7-3.3v-8.9c0-1.8-1.2-3.3-2.7-3.3H195.7z"/>
	<path d="M264,348.2h-68.3c-4.9,0-8.9-4.8-8.9-10.7v-8.9c0-5.9,4-10.7,8.9-10.7H264c4.9,0,8.9,4.8,8.9,10.7v8.9
		C272.9,343.4,268.9,348.2,264,348.2L264,348.2z M195.7,325.3c-1.5,0-2.7,1.5-2.7,3.3v8.9c0,1.8,1.2,3.3,2.7,3.3H264
		c1.5,0,2.7-1.5,2.7-3.3v-8.9c0-1.8-1.2-3.3-2.7-3.3H195.7z"/>
	<path d="M264,371.1h-68.3c-4.9,0-8.9-4.8-8.9-10.7v-8.9c0-5.9,4-10.7,8.9-10.7H264c4.9,0,8.9,4.8,8.9,10.7v8.9
		C272.9,366.3,268.9,371.1,264,371.1L264,371.1z M195.7,348.2c-1.5,0-2.7,1.5-2.7,3.3v8.9c0,1.8,1.2,3.3,2.7,3.3H264
		c1.5,0,2.7-1.5,2.7-3.3v-8.9c0-1.8-1.2-3.3-2.7-3.3H195.7z"/>
	<path d="M264,394h-68.3c-4.9,0-8.9-4.8-8.9-10.7v-8.9c0-5.9,4-10.7,8.9-10.7H264c4.9,0,8.9,4.8,8.9,10.7v8.9
		C272.9,389.2,268.9,394,264,394L264,394z M195.7,371.1c-1.5,0-2.7,1.5-2.7,3.3v8.9c0,1.8,1.2,3.3,2.7,3.3H264
		c1.5,0,2.7-1.5,2.7-3.3v-8.9c0-1.8-1.2-3.3-2.7-3.3H195.7z"/>
	<path d="M276.3,302.4h-68.3c-4.9,0-8.9-4.8-8.9-10.7v-8.9c0-5.9,4-10.7,8.9-10.7h68.3c4.9,0,8.9,4.8,8.9,10.7v8.9
		C285.3,297.6,281.3,302.4,276.3,302.4z M208.1,279.5c-1.5,0-2.7,1.5-2.7,3.3v8.9c0,1.8,1.2,3.3,2.7,3.3h68.3c1.5,0,2.7-1.5,2.7-3.3
		v-8.9c0-1.8-1.2-3.3-2.7-3.3H208.1z"/>
	<path d="M204,279.5c-3.9,0-7.5-3.1-8.6-7.9l-1.9-8.6c-0.6-2.8-0.3-5.7,0.9-8.2c1.2-2.5,3.1-4.3,5.4-5l65.9-21.6c0,0,0,0,0,0
		c4.8-1.6,9.7,1.8,11,7.5l1.9,8.6c1.3,5.7-1.5,11.6-6.3,13.2l-65.9,21.6C205.6,279.4,204.8,279.5,204,279.5z M267.2,235.4L201.4,257
		c-0.7,0.2-1.3,0.8-1.6,1.5c-0.4,0.8-0.5,1.7-0.3,2.5l1.9,8.6c0.4,1.7,1.9,2.8,3.4,2.3l65.9-21.6c1.5-0.5,2.3-2.3,1.9-4l-1.9-8.6
		C270.2,235.9,268.7,234.9,267.2,235.4z"/>
	<path d="M219.4,197.6H79.3c-1.7,0-3.1-1.7-3.1-3.7c0-2.1,1.4-3.7,3.1-3.7h140.1c1.7,0,3.1,1.7,3.1,3.7
		C222.5,195.9,221.1,197.6,219.4,197.6z"/>
	<path d="M219.4,219.2H79.3c-1.7,0-3.1-1.7-3.1-3.7s1.4-3.7,3.1-3.7h140.1c1.7,0,3.1,1.7,3.1,3.7S221.1,219.2,219.4,219.2z"/>
	<path d="M195.7,240.8H79.3c-1.7,0-3.1-1.7-3.1-3.7c0-2.1,1.4-3.7,3.1-3.7h116.5c1.7,0,3.1,1.7,3.1,3.7
		C198.8,239.1,197.5,240.8,195.7,240.8z"/>
	<path d="M182.4,262.4H79.3c-1.7,0-3.1-1.7-3.1-3.7s1.4-3.7,3.1-3.7h103.1c1.7,0,3.1,1.7,3.1,3.7S184.1,262.4,182.4,262.4z"/>
	<path d="M182.4,284H79.3c-1.7,0-3.1-1.7-3.1-3.7s1.4-3.7,3.1-3.7h103.1c1.7,0,3.1,1.7,3.1,3.7S184.1,284,182.4,284z"/>
	<path d="M96,336.2H80.1c-1.7,0-3.1-1.7-3.1-3.7s1.4-3.7,3.1-3.7H96c1.7,0,3.1,1.7,3.1,3.7S97.7,336.2,96,336.2z"/>
	<path d="M111.8,336.2h-4.7c-1.7,0-3.1-1.7-3.1-3.7s1.4-3.7,3.1-3.7h4.7c1.7,0,3.1,1.7,3.1,3.7S113.5,336.2,111.8,336.2z"/>
	<path d="M126.7,336.2h-4.7c-1.7,0-3.1-1.7-3.1-3.7s1.4-3.7,3.1-3.7h4.7c1.7,0,3.1,1.7,3.1,3.7S128.4,336.2,126.7,336.2z"/>
	<path d="M126.3,318.1C126.3,318.1,126.3,318.1,126.3,318.1l-46.8-0.4c-1.7,0-3.1-1.7-3.1-3.8c0-2.1,1.4-3.7,3.1-3.7l46.8,0.4
		c1.7,0,3.1,1.7,3.1,3.8C129.4,316.5,128,318.1,126.3,318.1z"/>
	<path d="M109.7,355.3C109.7,355.3,109.7,355.3,109.7,355.3l-30.4-0.2c-1.7,0-3.1-1.7-3.1-3.8c0-2.1,1.4-3.7,3.1-3.7h0l30.4,0.2
		c1.7,0,3.1,1.7,3.1,3.8C112.8,353.7,111.4,355.3,109.7,355.3z"/>
</g>
<g>
	<g>
		<path class="st7" d="M496,208v256c0,17.7-14.3,32-32,32H304c-17.7,0-32-14.3-32-32v-54.6V272v-64c0-17.7,14.3-32,32-32h1.6
			c2.4,11.8,7.4,22.7,14.5,32H304v64h160v-64h-16.1c7-9.3,12.1-20.2,14.5-32h1.6C481.7,176,496,190.3,496,208L496,208z"/>
	</g>
	<g>
		<path class="st8" d="M432,368h32v96h-32V368z"/>
	</g>
	<g>
		<path class="st8" d="M432,304h32v32h-32V304z"/>
	</g>
	<g>
		<path class="st8" d="M368,304h32v32h-32V304z"/>
	</g>
	<g>
		<path class="st8" d="M368,368h32v32h-32V368z"/>
	</g>
	<g>
		<path class="st8" d="M368,432h32v32h-32V432z"/>
	</g>
	<g>
		<path class="st8" d="M304,432h32v32h-32V432z"/>
	</g>
	<g>
		<path class="st8" d="M304,368h32v32h-32V368z"/>
	</g>
	<g>
		<path class="st8" d="M304,304h32v32h-32V304z"/>
	</g>
	<g>
		<path class="st9" d="M464,208v64H304v-64h16.1c14.6,19.4,37.8,32,63.9,32s49.4-12.6,63.9-32H464z"/>
	</g>
	<g>
		<path class="st10" d="M464,160c0,5.5-0.6,10.9-1.6,16c-2.4,11.8-7.4,22.7-14.5,32c-14.6,19.4-37.8,32-63.9,32s-49.4-12.6-63.9-32
			c-7-9.3-12.1-20.2-14.5-32c-1-5.1-1.6-10.5-1.6-16c0-44.2,35.8-80,80-80S464,115.8,464,160z"/>
	</g>
	<path d="M376,104v17.2c-9.2,2.9-16,11.5-16,21.7c0,8.7,4.8,16.5,12.6,20.4l15.6,7.8c2.3,1.2,3.8,3.5,3.8,6.1c0,3.8-3.1,6.8-6.8,6.8
		h-2.3c-3.8,0-6.8-3.1-6.8-6.8V176h-16v1.2c0,10.2,6.8,18.7,16,21.7V216h16v-17.2c9.2-2.9,16-11.5,16-21.7c0-8.7-4.8-16.5-12.6-20.4
		l-15.6-7.8c-2.3-1.2-3.8-3.5-3.8-6.1c0-3.8,3.1-6.8,6.8-6.8h2.3c3.8,0,6.8,3.1,6.8,6.8v1.2h16v-1.2c0-10.2-6.8-18.7-16-21.7V104
		H376z"/>
	<path d="M424,472h48V360h-48V472z M440,376h16v80h-16V376z"/>
	<path d="M360,472h48v-48h-48V472z M376,440h16v16h-16V440z"/>
	<path d="M296,472h48v-48h-48V472z M312,440h16v16h-16V440z"/>
	<path d="M360,408h48v-48h-48V408z M376,376h16v16h-16V376z"/>
	<path d="M296,408h48v-48h-48V408z M312,376h16v16h-16V376z"/>
	<path d="M360,344h48v-48h-48V344z M376,312h16v16h-16V312z"/>
	<path d="M424,344h48v-48h-48V344z M440,312h16v16h-16V312z"/>
	<path d="M296,344h48v-48h-48V344z M312,312h16v16h-16V312z"/>
</g>
</svg>
