<?xml version="1.0" encoding="utf-8"?>
<!-- Generator: Adobe Illustrator 23.0.3, SVG Export Plug-In . SVG Version: 6.00 Build 0)  -->
<svg version="1.1" id="Flat" xmlns="http://www.w3.org/2000/svg" xmlns:xlink="http://www.w3.org/1999/xlink" x="0px" y="0px"
	 viewBox="0 0 512 512" style="enable-background:new 0 0 512 512;" xml:space="preserve">
<style type="text/css">
	.st0{fill:#7E8589;}
	.st1{fill:#4F5659;}
	.st2{fill:#E9EEF2;}
	.st3{fill:#414649;}
	.st4{fill:#9AA3A8;}
	.st5{fill:#35A872;}
	.st6{fill:#F7B030;}
	.st7{fill:#88C791;}
	.st8{fill:#EDEBDC;}
	.st9{fill:#4C241D;}
	.st10{fill:#FFFFFF;}
	.st11{fill:#FFCE56;}
	.st12{fill:#E7D1C4;}
	.st13{fill:#E66353;}
</style>
<g>
	<path class="st0" d="M254,120H14l8-80h224L254,120z"/>
	<path class="st1" d="M14,120h240v272H14V120z"/>
	<path class="st2" d="M78,24h112v64H78V24z"/>
	<path class="st3" d="M214,96H54c-4.4,0-8-3.6-8-8s3.6-8,8-8h160c4.4,0,8,3.6,8,8S218.4,96,214,96z"/>
	<path class="st2" d="M54,152h160v64H54V152z"/>
	<g>
		<path class="st4" d="M150,264h-32c-4.4,0-8-3.6-8-8s3.6-8,8-8h32c4.4,0,8,3.6,8,8S154.4,264,150,264z"/>
		<path class="st4" d="M86,296H54c-4.4,0-8-3.6-8-8s3.6-8,8-8h32c4.4,0,8,3.6,8,8S90.4,296,86,296z"/>
		<path class="st4" d="M150,296h-32c-4.4,0-8-3.6-8-8s3.6-8,8-8h32c4.4,0,8,3.6,8,8S154.4,296,150,296z"/>
		<path class="st4" d="M86,328H54c-4.4,0-8-3.6-8-8s3.6-8,8-8h32c4.4,0,8,3.6,8,8S90.4,328,86,328z"/>
		<path class="st4" d="M150,328h-32c-4.4,0-8-3.6-8-8s3.6-8,8-8h32c4.4,0,8,3.6,8,8S154.4,328,150,328z"/>
		<path class="st4" d="M86,360H54c-4.4,0-8-3.6-8-8s3.6-8,8-8h32c4.4,0,8,3.6,8,8S90.4,360,86,360z"/>
		<path class="st4" d="M150,360h-32c-4.4,0-8-3.6-8-8s3.6-8,8-8h32c4.4,0,8,3.6,8,8S154.4,360,150,360z"/>
	</g>
	<path class="st5" d="M182,312h32v48h-32V312z"/>
	<path class="st6" d="M182,248h32v32h-32V248z"/>
	<path class="st3" d="M238,440H30l-16-48h240L238,440z"/>
	<path class="st7" d="M54,424h160v64H54V424z"/>
	<path class="st5" d="M150,424h32v64h-32V424z"/>
	<path class="st0" d="M254,120h64v272h-64V120z"/>
	<path class="st4" d="M86,264H54c-4.4,0-8-3.6-8-8s3.6-8,8-8h32c4.4,0,8,3.6,8,8S90.4,264,86,264z"/>
	<path class="st3" d="M278,120h16v272h-16V120z"/>
</g>
<g>
	<circle class="st8" cx="389.8" cy="190.6" r="99.3"/>
	<g>
		<path class="st9" d="M476.2,190.6c-2.4,0-4.3-1.9-4.3-4.3v-8.6c0-2.4,1.9-4.3,4.3-4.3s4.3,1.9,4.3,4.3v8.6
			C480.5,188.7,478.5,190.6,476.2,190.6z"/>
		<path class="st9" d="M476.2,216.5c-2.4,0-4.3-1.9-4.3-4.3v-8.6c0-2.4,1.9-4.3,4.3-4.3s4.3,1.9,4.3,4.3v8.6
			C480.5,214.6,478.5,216.5,476.2,216.5z"/>
		<path class="st9" d="M467.5,199.3h-8.6c-2.4,0-4.3-1.9-4.3-4.3c0-2.4,1.9-4.3,4.3-4.3h8.6c2.4,0,4.3,1.9,4.3,4.3
			C471.8,197.3,469.9,199.3,467.5,199.3z"/>
		<path class="st9" d="M493.4,199.3h-8.6c-2.4,0-4.3-1.9-4.3-4.3c0-2.4,1.9-4.3,4.3-4.3h8.6c2.4,0,4.3,1.9,4.3,4.3
			C497.7,197.3,495.8,199.3,493.4,199.3z"/>
		<circle class="st9" cx="284" cy="223" r="6.5"/>
		<circle class="st9" cx="297" cy="67.6" r="4.9"/>
		<path class="st9" d="M283.7,114.7c-1.1,0-2.2-0.4-3.1-1.3l-12.2-12.2c-1.7-1.7-1.7-4.4,0-6.1s4.4-1.7,6.1,0l12.2,12.2
			c1.7,1.7,1.7,4.4,0,6.1C285.9,114.3,284.8,114.7,283.7,114.7z"/>
		<path class="st9" d="M271.5,114.7c-1.1,0-2.2-0.4-3.1-1.3c-1.7-1.7-1.7-4.4,0-6.1l12.2-12.2c1.7-1.7,4.4-1.7,6.1,0
			c1.7,1.7,1.7,4.4,0,6.1l-12.2,12.2C273.7,114.3,272.6,114.7,271.5,114.7L271.5,114.7z"/>
		<path class="st9" d="M495.2,257.2c-1.1,0-2.2-0.4-3.1-1.3L480,243.7c-1.7-1.7-1.7-4.4,0-6.1c1.7-1.7,4.4-1.7,6.1,0l12.2,12.2
			c1.7,1.7,1.7,4.4,0,6.1C497.4,256.7,496.3,257.2,495.2,257.2z"/>
		<path class="st9" d="M483,257.2c-1.1,0-2.2-0.4-3.1-1.3c-1.7-1.7-1.7-4.4,0-6.1l12.2-12.2c1.7-1.7,4.4-1.7,6.1,0
			c1.7,1.7,1.7,4.4,0,6.1l-12.2,12.2C485.2,256.7,484.1,257.2,483,257.2L483,257.2z"/>
	</g>
	<g>
		<path class="st10" d="M458.9,320.1H303.5v-35.5c0-16,9.2-30.5,23.5-37l54.2-24.6l54.2,24.6c14.3,6.5,23.5,21,23.5,37V320.1z"/>
		<path class="st9" d="M458.9,324.5H303.5c-2.4,0-4.3-1.9-4.3-4.3v-35.5c0-17.7,10.2-33.7,26-40.9l54.2-24.6c1.1-0.5,2.4-0.5,3.6,0
			l54.2,24.6c15.8,7.2,26,23.2,26,40.9v35.5C463.2,322.5,461.3,324.5,458.9,324.5z M307.8,315.8h146.8v-31.2
			c0-14.3-8.2-27.3-21-33.1l-52.4-23.8l-52.4,23.8c-12.7,5.8-21,18.8-21,33.1V315.8z"/>
	</g>
	<g>
		<path class="st11" d="M342.3,289.9c-11.9,0-21.6-9.7-21.6-21.6V160.4h21.6V289.9z"/>
		<path class="st9" d="M342.3,294.2c-14.3,0-25.9-11.6-25.9-25.9V160.4c0-2.4,1.9-4.3,4.3-4.3h21.6c2.4,0,4.3,1.9,4.3,4.3v129.5
			C346.6,292.3,344.7,294.2,342.3,294.2z M325,164.7v103.6c0,8,5.5,14.8,13,16.7V164.7H325z"/>
	</g>
	<g>
		<path class="st12" d="M381.2,259.7c-11.9,0-21.6-9.7-21.6-21.6v-34.5h43.2v34.5C402.8,250,393.1,259.7,381.2,259.7z"/>
		<path class="st9" d="M381.2,264c-14.3,0-25.9-11.6-25.9-25.9v-34.5c0-2.4,1.9-4.3,4.3-4.3h43.2c2.4,0,4.3,1.9,4.3,4.3v34.5
			C407.1,252.4,395.5,264,381.2,264z M363.9,207.9v30.2c0,9.5,7.7,17.3,17.3,17.3s17.3-7.7,17.3-17.3v-30.2H363.9z"/>
	</g>
	<g>
		<path class="st13" d="M383.3,229.5c-34.6,0-62.6-28-62.6-62.6v-47.5c0-34.6,28-62.6,62.6-62.6c34.6,0,62.6,28,62.6,62.6v47.5
			C445.9,201.4,417.9,229.5,383.3,229.5z"/>
		<path class="st9" d="M383.3,233.8c-36.9,0-66.9-30-66.9-66.9v-47.5c0-36.9,30-66.9,66.9-66.9s66.9,30,66.9,66.9v47.5
			C450.3,203.8,420.2,233.8,383.3,233.8z M383.3,61.1c-32.1,0-58.3,26.1-58.3,58.3v47.5c0,32.1,26.1,58.3,58.3,58.3
			s58.3-26.1,58.3-58.3v-47.5C441.6,87.2,415.5,61.1,383.3,61.1z"/>
	</g>
	<g>
		<path class="st11" d="M363.9,112.9h38.9c23.8,0,43.2,19.3,43.2,43.2H320.7C320.7,132.2,340.1,112.9,363.9,112.9z"/>
		<path class="st9" d="M445.9,160.4H320.7c-2.4,0-4.3-1.9-4.3-4.3c0-26.2,21.3-47.5,47.5-47.5h38.9c26.2,0,47.5,21.3,47.5,47.5
			C450.3,158.5,448.3,160.4,445.9,160.4z M325.3,151.8h116.1c-2.2-19.4-18.6-34.5-38.6-34.5h-38.9
			C343.9,117.2,327.4,132.4,325.3,151.8z"/>
	</g>
	<g>
		<path class="st12" d="M348.3,118.6c-2.1,25.1-23.3,27.6-23.3,27.6c-3.9,1.7-6.6,5.7-6.5,10.3c0.1,3.5,2.2,6.6,5.1,8.5
			c3.5,2.3,6.5,2.2,9.1,1.3c4.3,20.9,19.5,38.4,40.4,45.1c6,1.9,12.5,1.7,18.5-0.2l1.9-0.6c20.6-6.7,35.6-23.8,40.1-44.3
			c2.6,0.9,5.6,1.1,9-1c2.8-1.7,4.9-4.5,5.2-7.7c0.6-4.9-2.1-9.3-6.3-11.2c-23.5,12.8-78.5-8.3-90.6-28.4"/>
		<path class="st9" d="M382,217.1c-3.4,0-6.9-0.5-10.1-1.6c-20.7-6.7-36.6-23.4-42.3-44.3c-2.9,0.1-5.6-0.8-8.3-2.6
			c-4.2-2.9-6.8-7.3-7-11.9c-0.2-6.2,3.3-11.9,9.1-14.4c0.4-0.2,0.8-0.3,1.2-0.3c0.7-0.1,17.7-2.6,19.5-23.7
			c0.2-2.4,2.3-4.1,4.7-3.9c0,0,0.1,0,0.1,0c0,0,0.1-0.1,0.2-0.1c2-1.2,4.7-0.6,5.9,1.5c11.4,18.9,64,38.1,84.9,26.8
			c1.2-0.6,2.6-0.7,3.8-0.1c6.1,2.7,9.6,9,8.8,15.7c-0.5,4.3-3.2,8.4-7.3,10.9c-2.6,1.6-5.3,2.4-8.1,2.3
			c-5.9,20.4-21.6,36.9-42,43.5l-1.9,0.6C389.4,216.5,385.7,217.1,382,217.1L382,217.1z M332.8,161.9c0.7,0,1.5,0.2,2.2,0.6
			c1.1,0.6,1.8,1.7,2.1,2.9c4,19.7,18.4,35.7,37.5,41.9c5,1.6,10.5,1.5,15.8-0.2l1.9-0.6c18.8-6.1,33-21.9,37.2-41.2
			c0.3-1.2,1-2.2,2.1-2.9c1.1-0.6,2.4-0.7,3.5-0.3c2,0.7,3.5,0.5,5.3-0.6c1.8-1.1,3-2.9,3.2-4.6c0.3-2.2-0.6-4.4-2.2-5.8
			c-23.8,10.2-72-6.1-90-25.6c-4.1,17-17.5,23.6-25.2,24.8c-2.2,1.2-3.5,3.4-3.4,5.9c0.1,1.8,1.3,3.8,3.2,5.1
			c2.1,1.4,3.6,1.3,5.3,0.8C331.9,162,332.3,161.9,332.8,161.9L332.8,161.9z"/>
	</g>
	<circle class="st9" cx="404.9" cy="162.6" r="4.3"/>
	<circle class="st9" cx="361.7" cy="162.6" r="4.3"/>
	<g>
		<path class="st13" d="M401.9,217.4c6.9,6.9,4.7,20.2,4.7,20.2s-13.4,2.2-20.2-4.7c-6.9-6.9-4.7-20.2-4.7-20.2
			S395,210.5,401.9,217.4z"/>
		<path class="st9" d="M401.7,242.3c-5.3,0-13.2-1-18.4-6.3c-8.3-8.3-6-23.4-5.9-24c0.3-1.8,1.7-3.3,3.6-3.6
			c0.6-0.1,15.6-2.5,24,5.9c8.3,8.3,6,23.4,5.9,24c-0.3,1.8-1.7,3.3-3.6,3.6C407,241.9,404.8,242.3,401.7,242.3z M406.6,237.6
			L406.6,237.6L406.6,237.6z M385.7,216.7c-0.1,4.1,0.5,10,3.7,13.2c3.2,3.2,9.2,3.9,13.2,3.7c0.1-4.1-0.5-10-3.7-13.2
			C395.6,217.2,389.7,216.6,385.7,216.7z"/>
	</g>
	<g>
		<path class="st13" d="M360.4,217.4c-6.9,6.9-4.7,20.2-4.7,20.2s13.4,2.2,20.2-4.7s4.7-20.2,4.7-20.2S367.3,210.5,360.4,217.4z"/>
		<path class="st9" d="M360.6,242.3c-3.1,0-5.3-0.3-5.6-0.4c-1.8-0.3-3.3-1.7-3.6-3.6c-0.1-0.6-2.5-15.6,5.9-24
			c8.4-8.3,23.4-6,24-5.9c1.8,0.3,3.3,1.7,3.6,3.6c0.1,0.6,2.5,15.6-5.9,24C373.8,241.2,365.9,242.3,360.6,242.3L360.6,242.3z
			 M359.8,233.6c4,0.1,10-0.5,13.2-3.7c3.2-3.2,3.8-9.1,3.7-13.2c-4.1-0.1-10,0.5-13.2,3.7S359.6,229.6,359.8,233.6z M360.4,217.4
			L360.4,217.4L360.4,217.4z"/>
	</g>
	<path class="st9" d="M381.2,194.9c-3.1,0-6.2-1.1-8.6-3.2c-1.8-1.6-2-4.3-0.4-6.1c1.6-1.8,4.3-2,6.1-0.4c1.7,1.5,4.5,1.4,6.1-0.3
		c1.6-1.8,4.3-1.9,6.1-0.3c1.8,1.6,1.9,4.3,0.3,6.1C388.3,193.4,384.8,194.9,381.2,194.9L381.2,194.9z"/>
	<path class="st9" d="M428.7,324.5c-2.4,0-4.3-1.9-4.3-4.3v-21.6c0-2.4,1.9-4.3,4.3-4.3s4.3,1.9,4.3,4.3v21.6
		C433,322.5,431.1,324.5,428.7,324.5z"/>
	<path class="st9" d="M333.7,324.5c-2.4,0-4.3-1.9-4.3-4.3v-21.6c0-2.4,1.9-4.3,4.3-4.3s4.3,1.9,4.3,4.3v21.6
		C338,322.5,336.1,324.5,333.7,324.5z"/>
	<path class="st9" d="M381.2,324.5c-2.4,0-4.3-1.9-4.3-4.3v-8.6c0-2.4,1.9-4.3,4.3-4.3s4.3,1.9,4.3,4.3v8.6
		C385.5,322.5,383.6,324.5,381.2,324.5z"/>
	<circle class="st11" cx="342.3" cy="99.9" r="4.3"/>
	<circle class="st11" cx="424.4" cy="99.9" r="4.3"/>
	<circle class="st11" cx="359.6" cy="91.3" r="4.3"/>
	<circle class="st11" cx="402.8" cy="91.3" r="4.3"/>
	<circle class="st11" cx="381.2" cy="87" r="4.3"/>
</g>
</svg>
