<svg id="Capa_1" enable-background="new 0 0 512 512" height="512" viewBox="0 0 512 512" width="512" xmlns="http://www.w3.org/2000/svg"><g><g><g><g fill="#f6e2bf"><path d="m155.618 127.429c-8.972 0-16.246 7.273-16.246 16.246v18.003c0 8.972 7.273 16.246 16.246 16.246h15.144l-.024-50.494h-15.12z"/><path d="m356.382 127.429h-15.119l-.024 50.494h15.143c8.972 0 16.246-7.273 16.246-16.246v-18.003c0-8.971-7.274-16.245-16.246-16.245z"/></g><g><g><path d="m197.646 311.299 58.354 45.369 58.354-45.369-.34-10.863c-3.051-2.792-4.937-6.8-4.937-11.206v-69.477h-106.155v69.477c0 4.447-1.922 8.489-5.024 11.284z" fill="#faefdb"/></g><g><g><g><g><g><g><g><g><g><g><g><g><g><g><g><g><g><g><g><path d="m355.069 348.737c-12.955-5.768-34.364-10.879-52.803-14.43l-46.266 35.97-82.04-63.783c-24.138 3.617-57.45 9.786-77.039 18.507-26.665 11.873-43.845 38.328-43.845 67.517v90.616c0 11.8 9.566 21.365 21.365 21.365h324.473v-88.246c0-29.188-17.18-55.643-43.845-67.516z" fill="#c9e0fd"/><g><path d="m415.079 325.001c-19.399-8.637-52.954-14.875-77.039-18.507l-40.28 31.316c18.899 3.585 40.752 8.74 54.06 14.665 26.665 11.873 43.845 38.328 43.845 67.517l-.045 84.508h41.939c11.8 0 21.365-9.565 21.365-21.365v-90.616c0-29.19-17.18-55.645-43.845-67.518z" fill="#bcd6f9"/></g></g></g></g></g></g></g></g></g></g></g></g></g></g><path d="m256.001 345.269h-.001-.001l-28.05 14.157 14.149 30.174h27.804l14.149-30.174z" fill="#938993"/></g><path d="m223.441 504.5h65.118l-18.657-114.899h-27.804z" fill="#a39ba3"/></g><g fill="#9bc4f9"><path d="m189.678 304.293c-5.811.754-13.17 1.777-21.3 3.062l19.727 50.688c3.747 9.628 14.975 13.933 24.198 9.278l43.697-22.052-57.859-44.983c-2.26 2.128-5.182 3.582-8.463 4.007z"/><path d="m323.895 358.043 19.727-50.688c-8.13-1.285-15.489-2.308-21.3-3.062-3.281-.426-6.203-1.879-8.463-4.008l-57.859 44.984 43.696 22.053c9.224 4.655 20.452.35 24.199-9.279z"/></g></g></g></g><path d="m387.097 435.281h-52.849c-4.368 0-7.908-3.541-7.908-7.908v-20.809c0-4.368 3.541-7.908 7.908-7.908h52.849c4.368 0 7.908 3.541 7.908 7.908v20.809c.001 4.367-3.54 7.908-7.908 7.908z" fill="#f4e066"/></g><path d="m299.19 179.375.013-152.455c-4.655-2.491-9.684-4.684-15.097-6.442v-.001c-.809-.263-1.501-.472-1.607-.506-8.004-2.437-16.827-3.922-26.499-4.03-26.758.299-47.014 11.129-61.424 23.537-18.38 15.826-28.338 39.33-28.338 63.585v24.365l.024 50.495c.881 41.007 28.833 71.352 64.36 81.504 4.036 1.021 8.304.813 12.177-.714 31.536-12.428 55.574-41.3 56.391-79.338z" fill="#faefdb"/><g><path d="m317.424 39.479c-6.314-5.437-13.751-10.57-22.366-14.648l-.019 153.092c-.881 41.054-29.069 71.329-64.418 81.504 8.147 2.342 16.686 3.62 25.378 3.717 46.234-.516 88.654-34.711 89.738-85.221l.024-50.495v-24.365c.002-24.254-9.956-47.758-28.337-63.584z" fill="#f6e2bf"/></g></g></g><path d="m282.491 83.429c10.862-2.69 10.524-3.816 16.708-4.747l.006-62.026c0-3.506-1.509-6.842-4.143-9.155l-75.473.002c-7.664 0-14.696 4.246-18.266 11.027v.221c0 7.477-5.994 12.348-13.381 11.197-18.967-2.957-35.315 11.63-35.315 30.036v67.722c.97-.181 1.97-.275 2.992-.275h11.104c8.633 0 16.082-6.583 16.583-15.202.02-.352.031-.707.031-1.064v-16.203c0-9.62 7.798-17.418 17.418-17.418 2.21.135 9.813-.731 19.75 2.64l2.174.738c19.28 6.543 40.039 7.416 59.812 2.507z" fill="#89808c"/><g><path d="m359.351 56.377c-.01-26.997-21.898-48.878-48.894-48.877h-15.395l-.009 72.068c2.715-.806 6.115-1.326 16.195-2.025 9.619 0 17.418 7.798 17.418 17.418v16.201c0 .357.01.712.031 1.065.5 8.619 7.949 15.202 16.583 15.202h11.104c1.022 0 2.022.095 2.991.275z" fill="#756e78"/></g></g><g><g><path d="m387.097 391.154h-52.849c-8.496 0-15.408 6.912-15.408 15.409v20.809c0 8.497 6.912 15.409 15.408 15.409h52.849c8.497 0 15.409-6.912 15.409-15.409v-20.809c0-8.497-6.912-15.409-15.409-15.409zm.409 36.218c0 .226-.184.409-.409.409h-52.849c-.225 0-.408-.184-.408-.409v-20.809c0-.226.184-.409.408-.409h52.849c.226 0 .409.184.409.409z"/></g><path d="m418.129 318.149c-24.114-10.736-68.684-17.899-94.842-21.293-3.732-.485-6.709-3.648-6.709-7.626v-39.189c21.04-16.065 33.712-39.07 36.22-64.618h3.583c13.094 0 23.746-10.652 23.746-23.746v-18.003c0-9.33-5.41-17.421-13.257-21.3l-.012-30.551c-.002-4.142-3.359-7.497-7.5-7.497h-.003c-4.143.002-7.499 3.361-7.497 7.503l.012 28.101h-11.07c-2.893-1.958-4.636-5.198-4.636-8.768v-16.2c0-14.385-12.181-25.342-25.185-24.913l-.306-.002c-7.874-.053-14.071 1.03-20.911 3.389-22.472 7.701-44.902 7.262-65.532.078-8.963-3.109-14.402-3.47-23.477-3.47-13.74 0-24.918 11.178-24.918 24.918v16.201c0 3.568-1.743 6.809-4.636 8.767h-11.073v-59.948c0-13.602 12.024-24.902 26.659-22.625 11.096 1.734 20.896-5.47 21.943-16.618 2.431-3.571 6.469-5.736 10.858-5.736l90.871-.003c22.816-.001 41.387 18.562 41.395 41.38.002 4.142 3.358 7.497 7.5 7.497h.003c4.142-.002 7.499-3.36 7.497-7.503-.012-31.086-25.31-56.375-56.395-56.374l-90.869.003c-10.479 0-20.021 5.76-24.902 15.032-1.624 3.088-.057 5.054-2.036 6.746-.834.715-2.096.983-3.553.756-23.307-3.639-43.97 14.244-43.97 37.445v62.393c-7.846 3.88-13.255 11.97-13.255 21.299v18.003c0 13.094 10.652 23.746 23.746 23.746h3.577c2.538 26.252 15.587 49.13 36.226 64.716v39.09c0 3.979-2.98 7.142-6.709 7.626-26.486 3.435-70.558 10.482-94.842 21.293-29.338 13.062-48.295 42.255-48.295 74.369v19.53c0 4.143 3.357 7.5 7.5 7.5s7.5-3.357 7.5-7.5v-19.53c0-26.197 15.464-50.01 39.396-60.666 15.713-6.996 41.21-12.399 63.614-16.129l17.529 45.04c5.376 13.816 21.473 19.861 34.566 13.253l8.753-4.417 9.887 21.087-17.26 106.315h-92.566v-31.049c0-4.143-3.357-7.5-7.5-7.5s-7.5 3.357-7.5 7.5v31.049h-35.053c-7.646 0-13.865-6.22-13.865-13.865v-35.9c0-4.143-3.357-7.5-7.5-7.5s-7.5 3.357-7.5 7.5v35.9c0 15.916 12.949 28.865 28.865 28.865h363.117c15.916 0 28.865-12.949 28.865-28.865v-90.616c.001-32.115-18.956-61.307-48.294-74.37zm-64.87-183.219c.101 0 3.691.018 3.59.013 4.606.244 8.279 4.067 8.279 8.733v18.003c0 4.822-3.924 8.746-8.746 8.746h-3.14zm-197.641 35.494c-4.822 0-8.746-3.924-8.746-8.746v-18.003c0-4.667 3.675-8.491 8.282-8.733.452-.024.688-.006 3.586-.012l.017 35.494zm165.739 141.307c3.591.466 7.592 1.012 11.877 1.636l-16.329 41.956c-2.133 5.477-8.522 7.981-13.83 5.302l-33.113-16.712 44.201-34.365c2.2 1.096 4.618 1.849 7.194 2.183zm-17.696-13.017-47.661 37.055-47.661-37.055c1.343-2.911 2.083-6.133 2.083-9.483v-29.747c14.495 7.351 29.692 10.985 45.495 11.161h.167c16.066-.179 31.62-4.046 45.494-11.149v29.735c0 3.351.74 6.573 2.083 9.483zm-29.494 64.124-9.031 19.263h-18.271l-9.031-19.263 18.166-9.169zm-100.405-184.999-.021-42.931c5.643-.425 17.095-9.59 17.095-23.745v-16.201c0-5.417 4.365-9.834 9.763-9.917 2.791.112 9.123-.599 17.494 2.242 25.125 8.519 50.057 9.419 76.539.336 4.95-1.698 9.401-2.609 15.913-2.577 6.95.071 10.619 4.933 10.619 9.916v16.2c0 14.015 11.358 23.313 17.095 23.746l-.021 42.931c-1.013 45.26-38.898 77.283-82.238 77.805-43.07-.517-81.216-32.096-82.238-77.805zm35.163 182.787c-5.247 2.649-11.673.239-13.83-5.302l-16.331-41.96c4.273-.62 8.274-1.164 11.878-1.633 2.577-.334 4.994-1.088 7.194-2.182l44.201 34.365zm23.332 136.374 16.221-99.899h15.043l16.222 99.899zm219.167-13.865c0 7.646-6.22 13.865-13.865 13.865h-35.053v-31.049c0-4.143-3.357-7.5-7.5-7.5s-7.5 3.357-7.5 7.5v31.049h-92.566l-17.263-106.314 9.887-21.087 8.753 4.417c13.124 6.624 29.201.538 34.566-13.253l17.524-45.026c22.448 3.753 48.08 9.195 63.62 16.115 23.933 10.656 39.396 34.469 39.396 60.666v90.617z"/></g></g></svg>