<?xml version="1.0" encoding="utf-8"?>
<!-- Generator: Adobe Illustrator 23.0.3, SVG Export Plug-In . SVG Version: 6.00 Build 0)  -->
<svg version="1.1" id="Flat" xmlns="http://www.w3.org/2000/svg" xmlns:xlink="http://www.w3.org/1999/xlink" x="0px" y="0px"
	 viewBox="0 0 512 512" style="enable-background:new 0 0 512 512;" xml:space="preserve">
<style type="text/css">
	.st0{fill:#7E8589;}
	.st1{fill:#4F5659;}
	.st2{fill:#E9EEF2;}
	.st3{fill:#414649;}
	.st4{fill:#9AA3A8;}
	.st5{fill:#35A872;}
	.st6{fill:#F7B030;}
	.st7{fill:#88C791;}
	.st8{fill:#E0EBFC;}
	.st9{fill:#3762CC;}
	.st10{fill:#6BDDDD;}
	.st11{fill:#FFEA92;}
	.st12{fill:#B9BEFC;}
	.st13{fill:#F9A7A7;}
</style>
<g>
	<path class="st0" d="M259,117.5H19l8-80h224L259,117.5z"/>
	<path class="st1" d="M19,117.5h240v272H19V117.5z"/>
	<path class="st2" d="M83,21.5h112v64H83V21.5z"/>
	<path class="st3" d="M219,93.5H59c-4.4,0-8-3.6-8-8s3.6-8,8-8h160c4.4,0,8,3.6,8,8S223.4,93.5,219,93.5z"/>
	<path class="st2" d="M59,149.5h160v64H59V149.5z"/>
	<g>
		<path class="st4" d="M155,261.5h-32c-4.4,0-8-3.6-8-8c0-4.4,3.6-8,8-8h32c4.4,0,8,3.6,8,8C163,257.9,159.4,261.5,155,261.5z"/>
		<path class="st4" d="M91,293.5H59c-4.4,0-8-3.6-8-8s3.6-8,8-8h32c4.4,0,8,3.6,8,8S95.4,293.5,91,293.5z"/>
		<path class="st4" d="M155,293.5h-32c-4.4,0-8-3.6-8-8s3.6-8,8-8h32c4.4,0,8,3.6,8,8S159.4,293.5,155,293.5z"/>
		<path class="st4" d="M91,325.5H59c-4.4,0-8-3.6-8-8s3.6-8,8-8h32c4.4,0,8,3.6,8,8S95.4,325.5,91,325.5z"/>
		<path class="st4" d="M155,325.5h-32c-4.4,0-8-3.6-8-8s3.6-8,8-8h32c4.4,0,8,3.6,8,8S159.4,325.5,155,325.5z"/>
		<path class="st4" d="M91,357.5H59c-4.4,0-8-3.6-8-8s3.6-8,8-8h32c4.4,0,8,3.6,8,8S95.4,357.5,91,357.5z"/>
		<path class="st4" d="M155,357.5h-32c-4.4,0-8-3.6-8-8s3.6-8,8-8h32c4.4,0,8,3.6,8,8S159.4,357.5,155,357.5z"/>
	</g>
	<path class="st5" d="M187,309.5h32v48h-32V309.5z"/>
	<path class="st6" d="M187,245.5h32v32h-32V245.5z"/>
	<path class="st3" d="M243,437.5H35l-16-48h240L243,437.5z"/>
	<path class="st7" d="M59,421.5h160v64H59V421.5z"/>
	<path class="st5" d="M155,421.5h32v64h-32V421.5z"/>
	<path class="st0" d="M259,117.5h64v272h-64V117.5z"/>
	<path class="st4" d="M91,261.5H59c-4.4,0-8-3.6-8-8c0-4.4,3.6-8,8-8h32c4.4,0,8,3.6,8,8C99,257.9,95.4,261.5,91,261.5z"/>
	<path class="st3" d="M283,117.5h16v272h-16V117.5z"/>
</g>
<g>
	<path class="st8" d="M474.9,425.6H287.1c-9.5,0-17.2-7.7-17.2-17.2V182c0-9.5,7.7-17.2,17.2-17.2h187.8c9.5,0,17.2,7.7,17.2,17.2
		v226.4C492.1,417.9,484.4,425.6,474.9,425.6z"/>
	<path class="st9" d="M474.9,428.5H287.1c-11.1,0-20.1-9-20.1-20.1V182c0-11.1,9-20.1,20.1-20.1h187.8c11.1,0,20.1,9,20.1,20.1
		v226.4C495,419.5,486,428.5,474.9,428.5z M287.1,167.6c-7.9,0-14.3,6.4-14.3,14.3v226.4c0,7.9,6.4,14.3,14.3,14.3h187.8
		c7.9,0,14.3-6.4,14.3-14.3V182c0-7.9-6.4-14.3-14.3-14.3H287.1z"/>
	<path class="st10" d="M470.6,81.5H291.4c-4.5,0-8.1,3.6-8.1,8.1V144c0,4.5,3.6,8.1,8.1,8.1h66.9c1.4,0,2.7,0.7,3.5,1.8l15.8,21.9
		c1.7,2.4,5.3,2.4,7,0l15.8-21.9c0.8-1.1,2.1-1.8,3.5-1.8h66.9c4.5,0,8.1-3.6,8.1-8.1V89.5C478.7,85.1,475.1,81.5,470.6,81.5
		L470.6,81.5z"/>
	<path class="st11" d="M343.8,94.3h-26.4c-1.7,0-3.1,0.4-4.1,1.3c-1,0.9-1.6,2.1-1.6,3.6c0,1.4,0.5,2.6,1.5,3.5
		c1,0.9,2.3,1.3,4.1,1.3h7.6v28.4c0,2.1,0.5,3.7,1.5,4.8c1.1,1.1,2.4,1.7,4.1,1.7c1.6,0,3-0.6,4-1.7c1-1.1,1.5-2.7,1.5-4.8V104h7.6
		c1.8,0,3.2-0.4,4.1-1.3c1-0.9,1.6-2.1,1.6-3.6c0-1.4-0.5-2.7-1.5-3.6C347,94.8,345.6,94.3,343.8,94.3L343.8,94.3z"/>
	<path class="st8" d="M396.9,128.7c-0.9-0.8-1.7-1.4-2.3-1.9c0.8-1.5,1.5-2.9,2-4.2c0.6-1.7,1-3,1-4c0-1.3-0.5-2.4-1.5-3.3
		c-0.9-0.9-2.1-1.3-3.3-1.3c-1.4,0-2.5,0.5-3.3,1.5c-0.6,0.7-1.2,1.9-1.9,3.5c-0.1,0.4-0.3,0.7-0.4,1c-0.2-0.2-0.4-0.4-0.5-0.6
		c-0.7-0.8-1.5-1.7-2.3-2.7c-0.5-0.6-1-1.2-1.5-1.9c2.1-1.4,3.8-2.8,5-4.1c1.6-1.8,2.4-4,2.4-6.4c0-1.8-0.5-3.5-1.5-5.2
		c-1-1.6-2.5-3-4.4-4c-1.9-1-4.2-1.5-6.8-1.5c-2.6,0-4.9,0.5-6.8,1.4c-2,1-3.5,2.3-4.6,3.9c-1,1.7-1.6,3.5-1.6,5.5
		c0,1.7,0.4,3.3,1.2,4.9c0.6,1.1,1.3,2.3,2.3,3.6c-1,0.6-2,1.2-2.8,1.8c-1.3,0.9-2.4,1.9-3.2,2.9c-0.9,1.1-1.6,2.3-2.1,3.6
		c-0.5,1.3-0.8,2.8-0.8,4.4c0,1.6,0.3,3.3,1,4.9c0.7,1.6,1.7,3,3.1,4.3c1.4,1.3,3.1,2.3,5.1,3.1c2,0.7,4.3,1.1,6.8,1.1
		c1.9,0,3.7-0.2,5.3-0.6c1.6-0.4,3.1-1,4.5-1.8c1.1-0.6,2.1-1.3,3.1-2.2c2.2,1.8,3.6,2.9,4.4,3.4c1.1,0.7,2.2,1.1,3.4,1.1
		c1.2,0,2.4-0.5,3.3-1.4c1-0.9,1.5-2.1,1.5-3.5c0-1.1-0.3-1.9-0.8-2.6C399.6,131.1,399,130.4,396.9,128.7L396.9,128.7z M375.5,102.3
		c0.6-0.6,1.3-0.8,2.3-0.8c0.9,0,1.7,0.3,2.2,0.8c0.6,0.5,0.8,1.1,0.8,1.9c0,0.8-0.3,1.4-0.8,2c-0.6,0.6-1.6,1.3-2.8,2.2
		c-0.4-0.5-0.8-1-1.1-1.4c-0.4-0.6-0.8-1.1-1.1-1.7c-0.2-0.4-0.3-0.8-0.3-1.2C374.6,103.4,374.9,102.8,375.5,102.3z M379.9,128.9
		c-0.7,0.5-1.4,0.8-2.2,1.1c-0.7,0.2-1.5,0.4-2.3,0.4c-0.8,0-1.5-0.1-2.2-0.4c-0.7-0.3-1.3-0.7-1.8-1.2c-0.5-0.5-0.9-1.1-1.2-1.8
		c-0.3-0.6-0.4-1.2-0.4-1.9c0-1.2,0.3-2.1,1.1-3c0.7-0.8,1.6-1.6,2.9-2.4c1.5,1.8,2.9,3.4,4,4.7c1,1.2,2.2,2.4,3.4,3.6
		C380.7,128.3,380.3,128.6,379.9,128.9L379.9,128.9z"/>
	<path class="st11" d="M448.7,120.2c-1-1-2.2-1.4-3.5-1.4c-2,0-3.1,0.9-3.7,1.6c-0.6,0.8-1.1,1.8-1.5,3c-0.7,2-1.8,3.5-3.2,4.6
		c-1.4,1-3.1,1.5-5.2,1.5c-1.9,0-3.6-0.5-5-1.3c-1.4-0.9-2.5-2.3-3.3-4.1c-0.8-1.9-1.2-4.4-1.2-7.4c0-4.4,0.9-7.9,2.7-10.2
		c1.8-2.2,4.1-3.3,7-3.3c1.8,0,3.4,0.4,4.6,1.3c1.3,0.9,2.4,2.2,3.4,4.1c0.7,1.4,1.4,2.4,2.1,3c0.8,0.8,1.9,1.2,3.4,1.2
		c1.3,0,2.6-0.5,3.5-1.6c0.9-1,1.4-2.2,1.4-3.5c0-2-0.8-4.2-2.3-6.4c-1.5-2.1-3.7-3.9-6.5-5.4c-2.8-1.4-6-2.1-9.5-2.1
		c-2.9,0-5.7,0.5-8.2,1.6c-2.6,1-4.9,2.6-6.8,4.6c-1.9,2-3.4,4.4-4.4,7.2c-1,2.8-1.5,5.9-1.5,9.4c0,2.1,0.2,4.2,0.6,6.1
		c0.4,1.9,1,3.7,1.8,5.4c0.8,1.7,1.8,3.3,3,4.6c1.3,1.5,2.8,2.8,4.3,3.7c1.6,0.9,3.3,1.6,5.2,2.1c1.9,0.4,4,0.7,6.2,0.7
		c3,0,5.8-0.5,8.1-1.5c2.3-1,4.3-2.3,5.8-3.9c1.5-1.6,2.6-3.2,3.3-4.9c0.7-1.7,1.1-3.3,1.1-4.8C450.2,122.4,449.7,121.2,448.7,120.2
		L448.7,120.2z"/>
	<g>
		<path class="st12" d="M447.4,208.7H314.6c-4.8,0-8.6-3.9-8.6-8.6s3.9-8.6,8.6-8.6h132.7c4.8,0,8.6,3.9,8.6,8.6
			C456,204.9,452.1,208.7,447.4,208.7L447.4,208.7z"/>
		<path class="st12" d="M467.8,244.2H294.2c-3.2,0-5.7-2.6-5.7-5.7s2.6-5.7,5.7-5.7h173.5c3.2,0,5.7,2.6,5.7,5.7
			S470.9,244.2,467.8,244.2z"/>
		<path class="st12" d="M467.8,270H294.2c-3.2,0-5.7-2.6-5.7-5.7s2.6-5.7,5.7-5.7h173.5c3.2,0,5.7,2.6,5.7,5.7S470.9,270,467.8,270z
			"/>
		<path class="st12" d="M467.8,295.8H294.2c-3.2,0-5.7-2.6-5.7-5.7c0-3.2,2.6-5.7,5.7-5.7h173.5c3.2,0,5.7,2.6,5.7,5.7
			C473.5,293.3,470.9,295.8,467.8,295.8z"/>
		<path class="st12" d="M467.8,321.6H294.2c-3.2,0-5.7-2.6-5.7-5.7c0-3.2,2.6-5.7,5.7-5.7h173.5c3.2,0,5.7,2.6,5.7,5.7
			C473.5,319.1,470.9,321.6,467.8,321.6z"/>
		<path class="st12" d="M467.8,347.5H294.2c-3.2,0-5.7-2.6-5.7-5.7s2.6-5.7,5.7-5.7h173.5c3.2,0,5.7,2.6,5.7,5.7
			S470.9,347.5,467.8,347.5z"/>
	</g>
	<path class="st11" d="M314,397.3h-15.4c-2.4,0-4.3-1.9-4.3-4.3v-15.4c0-2.4,1.9-4.3,4.3-4.3H314c2.4,0,4.3,1.9,4.3,4.3V393
		C318.3,395.4,316.3,397.3,314,397.3z"/>
	<path class="st12" d="M422.6,389.6h-86c-2.4,0-4.3-1.9-4.3-4.3s1.9-4.3,4.3-4.3h86c2.4,0,4.3,1.9,4.3,4.3S425,389.6,422.6,389.6z"
		/>
	<path class="st9" d="M381,180.4c-2.3,0-4.5-1.1-5.8-3l-15.8-21.9c-0.3-0.4-0.7-0.6-1.2-0.6h-66.9c-6,0-10.9-4.9-10.9-10.9V89.5
		c0-6,4.9-10.9,10.9-10.9h179.3c6,0,10.9,4.9,10.9,10.9V144c0,6-4.9,10.9-10.9,10.9h-66.9c-0.5,0-0.9,0.2-1.2,0.6l-15.8,21.9
		C385.5,179.3,383.3,180.4,381,180.4L381,180.4z M291.4,84.3c-2.9,0-5.2,2.3-5.2,5.2V144c0,2.9,2.3,5.2,5.2,5.2h66.9
		c2.3,0,4.5,1.1,5.8,3l15.8,21.9c0.4,0.5,0.9,0.6,1.2,0.6s0.8-0.1,1.2-0.6l15.8-21.9c1.3-1.9,3.5-3,5.8-3h66.9
		c2.9,0,5.2-2.3,5.2-5.2V89.5c0-2.9-2.3-5.2-5.2-5.2H291.4z"/>
	<path class="st9" d="M314,400.2h-15.4c-4,0-7.2-3.2-7.2-7.2v-15.4c0-4,3.2-7.2,7.2-7.2H314c4,0,7.2,3.2,7.2,7.2V393
		C321.1,396.9,317.9,400.2,314,400.2z M298.5,376.1c-0.8,0-1.4,0.6-1.4,1.4V393c0,0.8,0.6,1.4,1.4,1.4H314c0.8,0,1.4-0.6,1.4-1.4
		v-15.4c0-0.8-0.6-1.4-1.4-1.4H298.5z"/>
	<path class="st13" d="M307.2,392.6c-0.1,0-0.2,0-0.3,0c-1-0.1-1.9-0.6-2.6-1.4l-7.2-9.3c-1.2-1.6-0.9-3.8,0.6-5
		c1.6-1.2,3.8-0.9,5,0.6l4.8,6.2l25-23.8c1.4-1.4,3.7-1.3,5.1,0.1c1.4,1.4,1.3,3.7-0.1,5.1l-27.9,26.5
		C309,392.3,308.1,392.6,307.2,392.6L307.2,392.6z"/>
</g>
</svg>
