<svg id="Flat" height="512" viewBox="0 0 512 512" width="512" xmlns="http://www.w3.org/2000/svg"><path d="m88 24h336v464h-336z" fill="#6a7073"/><path d="m376 56v384l-24-16-24 16-24-16-24 16-24-16-24 16-24-16-24 16-24-16-24 16v-384z" fill="#fae8d8"/><g fill="#7e8488"><path d="m200 192h-24a8 8 0 0 1 0-16h24a8 8 0 0 0 0-16h-16a24 24 0 0 1 0-48h24a8 8 0 0 1 0 16h-24a8 8 0 0 0 0 16h16a24 24 0 0 1 0 48z"/><path d="m192 208a8 8 0 0 1 -8-8v-16a8 8 0 0 1 16 0v16a8 8 0 0 1 -8 8z"/><path d="m192 128a8 8 0 0 1 -8-8v-16a8 8 0 0 1 16 0v16a8 8 0 0 1 -8 8z"/><path d="m344 128h-56a8 8 0 0 1 0-16h56a8 8 0 0 1 0 16z"/><path d="m304 192h-56a8 8 0 0 1 0-16h56a8 8 0 0 1 0 16z"/><path d="m344 160h-96a8 8 0 0 1 0-16h96a8 8 0 0 1 0 16z"/><path d="m344 240h-176a8 8 0 0 1 0-16h176a8 8 0 0 1 0 16z"/><path d="m344 272h-176a8 8 0 0 1 0-16h176a8 8 0 0 1 0 16z"/><path d="m240 304h-40a8 8 0 0 1 0-16h40a8 8 0 0 1 0 16z"/><path d="m240 336h-40a8 8 0 0 1 0-16h40a8 8 0 0 1 0 16z"/><path d="m240 368h-40a8 8 0 0 1 0-16h40a8 8 0 0 1 0 16z"/><path d="m344 304h-24a8 8 0 0 1 0-16h24a8 8 0 0 1 0 16z"/><path d="m344 336h-24a8 8 0 0 1 0-16h24a8 8 0 0 1 0 16z"/><path d="m344 368h-24a8 8 0 0 1 0-16h24a8 8 0 0 1 0 16z"/><path d="m312 400h-112a8 8 0 0 1 0-16h112a8 8 0 0 1 0 16z"/></g><path d="m184 24h144a0 0 0 0 1 0 0v16a32 32 0 0 1 -32 32h-80a32 32 0 0 1 -32-32v-16a0 0 0 0 1 0 0z" fill="#c2c5c6"/><circle cx="256" cy="120" fill="#7e8488" r="8"/><circle cx="168" cy="296" fill="#7e8488" r="8"/><circle cx="168" cy="328" fill="#7e8488" r="8"/><circle cx="168" cy="360" fill="#7e8488" r="8"/></svg>