<?xml version="1.0" encoding="utf-8"?>
<!-- Generator: Adobe Illustrator 23.0.3, SVG Export Plug-In . SVG Version: 6.00 Build 0)  -->
<svg version="1.1" id="Flat" xmlns="http://www.w3.org/2000/svg" xmlns:xlink="http://www.w3.org/1999/xlink" x="0px" y="0px"
	 viewBox="0 0 512 512" style="enable-background:new 0 0 512 512;" xml:space="preserve">
<style type="text/css">
	.st0{fill:#7E8589;}
	.st1{fill:#4F5659;}
	.st2{fill:#E9EEF2;}
	.st3{fill:#414649;}
	.st4{fill:#9AA3A8;}
	.st5{fill:#35A872;}
	.st6{fill:#F7B030;}
	.st7{fill:#88C791;}
	.st8{fill:#31C9AC;}
	.st9{fill:#FF4155;}
	.st10{fill:#E80054;}
	.st11{fill:#FCAD6D;}
	.st12{fill:#FD995B;}
	.st13{fill:#FF7186;}
	.st14{fill:#A05838;}
	.st15{fill:#F9BA8F;}
	.st16{fill:#E9EFFF;}
	.st17{fill:#BEC8F7;}
	.st18{fill:#FFDD40;}
	.st19{fill:#FFB332;}
	.st20{fill:#A3B3EF;}
	.st21{fill:#49D88B;}
	.st22{fill:#38C674;}
	.st23{fill:#24B55E;}
	.st24{fill:#73C3F9;}
	.st25{fill:#4FABF7;}
	.st26{fill:#2E8BE6;}
	.st27{fill:#FF9100;}
	.st28{fill:#823C26;}
	.st29{fill:#B76C4E;}
</style>
<g>
	<path class="st0" d="M254,120H14l8-80h224L254,120z"/>
	<path class="st1" d="M14,120h240v272H14V120z"/>
	<path class="st2" d="M78,24h112v64H78V24z"/>
	<path class="st3" d="M214,96H54c-4.4,0-8-3.6-8-8s3.6-8,8-8h160c4.4,0,8,3.6,8,8S218.4,96,214,96z"/>
	<path class="st2" d="M54,152h160v64H54V152z"/>
	<g>
		<path class="st4" d="M150,264h-32c-4.4,0-8-3.6-8-8s3.6-8,8-8h32c4.4,0,8,3.6,8,8S154.4,264,150,264z"/>
		<path class="st4" d="M86,296H54c-4.4,0-8-3.6-8-8s3.6-8,8-8h32c4.4,0,8,3.6,8,8S90.4,296,86,296z"/>
		<path class="st4" d="M150,296h-32c-4.4,0-8-3.6-8-8s3.6-8,8-8h32c4.4,0,8,3.6,8,8S154.4,296,150,296z"/>
		<path class="st4" d="M86,328H54c-4.4,0-8-3.6-8-8s3.6-8,8-8h32c4.4,0,8,3.6,8,8S90.4,328,86,328z"/>
		<path class="st4" d="M150,328h-32c-4.4,0-8-3.6-8-8s3.6-8,8-8h32c4.4,0,8,3.6,8,8S154.4,328,150,328z"/>
		<path class="st4" d="M86,360H54c-4.4,0-8-3.6-8-8s3.6-8,8-8h32c4.4,0,8,3.6,8,8S90.4,360,86,360z"/>
		<path class="st4" d="M150,360h-32c-4.4,0-8-3.6-8-8s3.6-8,8-8h32c4.4,0,8,3.6,8,8S154.4,360,150,360z"/>
	</g>
	<path class="st5" d="M182,312h32v48h-32V312z"/>
	<path class="st6" d="M182,248h32v32h-32V248z"/>
	<path class="st3" d="M238,440H30l-16-48h240L238,440z"/>
	<path class="st7" d="M54,424h160v64H54V424z"/>
	<path class="st5" d="M150,424h32v64h-32V424z"/>
	<path class="st0" d="M254,120h64v272h-64V120z"/>
	<path class="st4" d="M86,264H54c-4.4,0-8-3.6-8-8s3.6-8,8-8h32c4.4,0,8,3.6,8,8S90.4,264,86,264z"/>
	<path class="st3" d="M278,120h16v272h-16V120z"/>
</g>
<g>
	<path class="st8" d="M477.5,318.1c14.2-21.9,22.5-48.2,22.5-76.4c0-76.9-61.6-139.2-137.5-139.2S225,164.8,225,241.8
		c0,28.2,8.3,54.4,22.5,76.4H477.5z"/>
	<path class="st9" d="M291.6,322.2v26h141.7v-26c0-9.9,3.6-19.4,10.1-26.7l17.7-20c-3.8-3.4-8.3-6.1-13.9-7.9l-39.4-15.2
		c-6.4,13.3-24.3,22.8-45.4,22.8s-39-9.6-45.4-22.8l-39.4,15.2c-5.6,1.7-10.1,4.5-13.9,7.9l17.7,20
		C288,302.8,291.6,312.4,291.6,322.2L291.6,322.2z"/>
	<path class="st10" d="M286.4,302.4c13.4-10,39.1-20.6,46.9-23.8c1.4-0.6,2.6-1.7,3.2-3.2c0.7-1.7,1.4-3.3,2.2-4.6
		c-10-4-17.8-10.6-21.5-18.4l-39.4,15.2c-5.6,1.7-10.1,4.5-13.9,7.9l17.7,20C283.4,297.6,285,299.9,286.4,302.4z"/>
	<path class="st11" d="M362.5,275.4c21.1,0,39-9.6,45.4-22.8c-3.8-1.4-7.7-2.5-11.8-3.5c-5.2-5.3-6.5-15.2-6.7-22.2
		c-2.7,3.2-5.6,5.9-8.3,8c-5.3,4.2-11.8,6.4-18.6,6.4c-6.7,0-13.3-2.3-18.6-6.4c-2.7-2.1-5.6-4.8-8.3-8c-0.2,7-1.6,16.9-6.7,22.2
		c-4.1,0.9-8,2.1-11.8,3.5C323.5,265.8,341.4,275.4,362.5,275.4L362.5,275.4z"/>
	<path class="st12" d="M343.9,234.8c-2.7-2.1-5.6-4.8-8.3-8c-0.2,7-1.6,16.9-6.7,22.2c-4.1,0.9-8,2.1-11.8,3.5
		c3.8,7.8,11.5,14.3,21.5,18.4c4.5-7.8,9.5-8.8,12.5-8.5c1.9,0.2,3.8-0.6,5-2.2c5.1-6.8,6.2-14.9,6.3-18.9
		C355.7,241.3,349.2,239,343.9,234.8L343.9,234.8z"/>
	<path class="st13" d="M366.4,309.5h-7.9c-3.2,0-5.8-2.6-5.8-5.8v-30.9h19.4v30.9C372.2,306.9,369.6,309.5,366.4,309.5L366.4,309.5z
		"/>
	<path class="st14" d="M314.1,159.5c0.6,4.2,1.2,7,1.2,7c1.4,0.1,2.9,0.7,4,1.2c0.2-1.3,0.5-2.5,0.9-3.7
		C317.8,163.1,315.7,161.5,314.1,159.5L314.1,159.5z"/>
	<path class="st14" d="M403.9,164.5c0.3,1.1,0.6,2.1,0.7,3.2c1.4-0.7,3.4-1.4,5.1-1.2c0.1-1.9,0.1-3.9,0.2-5.8
		C408.3,162.5,406.3,163.8,403.9,164.5L403.9,164.5z"/>
	<path class="st11" d="M413.3,166.8c-2.1-1.9-6.3-1-8.1,0.2c0.4,2.5,0.4,5.1,0.1,7.6l-2.1,15.7c0,1.3,0,2.5-0.1,3.7
		c5.2,1.6,7.8-3.1,8.2-6.4c0.2-1.4,0.5-2.8,0.9-4.1C413.5,179.2,418.5,171.7,413.3,166.8L413.3,166.8z"/>
	<path class="st12" d="M409.2,180.6c-1.7,0-3.3-0.5-4.6-1.4l-1.5,11.1c0,1.3,0,2.5-0.1,3.7c5.2,1.6,7.8-3.1,8.2-6.4
		c0.2-1.4,0.5-2.8,0.9-4.1c0.4-1.3,1.1-2.8,1.8-4.5C412.6,180,411,180.6,409.2,180.6z"/>
	<path class="st11" d="M311.7,166.8c2.1-1.9,6.3-1,8.1,0.2c-0.4,2.5-0.4,5.1-0.1,7.6l2.1,15.7c0,1.3,0,2.5,0.1,3.7
		c-5.2,1.6-7.8-3.1-8.2-6.4c-0.2-1.4-0.5-2.8-0.9-4.1C311.4,179.2,306.5,171.7,311.7,166.8z"/>
	<path class="st12" d="M320.4,179.2c-1.3,0.9-2.9,1.4-4.6,1.4c-1.8,0-3.4-0.6-4.7-1.6c0.7,1.7,1.4,3.2,1.8,4.5
		c0.4,1.3,0.7,2.7,0.9,4.1c0.4,3.2,3,8,8.2,6.4c-0.1-1.2-0.1-2.5-0.1-3.7L320.4,179.2z"/>
	<g>
		<path class="st15" d="M388.4,161.6c-29.7-9.4-51,0-60.9,2.1c-2.7,0.6-5.2,0.3-7.5-0.5c-1.1,3.6-1.5,7.5-0.9,11.4l2.1,15.6
			c0,26.1,15.6,41.2,22.3,46.5c5.6,4.4,12.3,6.6,19,6.6s13.4-2.2,19-6.6c6.7-5.3,22.3-20.4,22.3-46.4l2.1-15.7
			c0.5-3.9,0.2-7.7-0.9-11.3C400.7,165.1,396.8,164.3,388.4,161.6z"/>
	</g>
	<g>
		<path class="st11" d="M373.1,236.4c-6.7-5.6-22.3-21.8-22.3-49.7l-2.1-16.7c-0.5-3.9-0.2-7.8,0.7-11.4c-9.7,1.5-17.1,4.2-21.8,5.2
			c-2.7,0.6-5.2,0.3-7.5-0.5c-1.1,3.6-1.5,7.5-0.9,11.4l2.1,15.6c0,26.1,15.6,41.2,22.3,46.5c5.6,4.4,12.3,6.6,19,6.6
			c5.2,0,10.3-1.3,15-3.9C375.9,238.6,374.5,237.6,373.1,236.4L373.1,236.4z"/>
	</g>
	<g>
		<path class="st16" d="M353.7,263c-13.8-6-19.9-13.4-22.5-18.4l-7.4,23c7.4,7.9,15.8,13,21.3,15.9c3.3,1.7,7.3,0.4,9-2.9l3.4-6.7
			C359.6,269.9,357.9,264.8,353.7,263L353.7,263z"/>
	</g>
	<path class="st17" d="M331.2,244.6l-7.4,23c3.7,3.9,7.6,7.2,11.3,9.8c0.6-0.5,1-1.2,1.3-1.9c4.9-12,11.2-13.4,14.7-13.1
		c0.4,0,0.8,0,1.1,0C339.5,256.5,333.8,249.4,331.2,244.6z"/>
	<g>
		<path class="st16" d="M393.8,244.6c-2.7,5-8.7,12.4-22.5,18.4c-4.2,1.8-5.9,6.9-3.8,11l3.4,6.7c1.7,3.3,5.7,4.6,9,2.9
			c5.5-2.9,13.8-8,21.3-15.9L393.8,244.6z"/>
	</g>
	<path class="st16" d="M460.4,274.9l-18.3,20.6c-6.5,7.3-10.1,16.8-10.1,26.7v39.7c18.5-11,34.2-26.2,45.8-44.4
		C477,304.4,473.3,285.9,460.4,274.9z"/>
	<path class="st17" d="M434.1,309.5c-1.4,4.1-2.1,8.4-2.1,12.7v39.7c6.7-4,13-8.5,19-13.6C448.1,320,434.1,309.5,434.1,309.5
		L434.1,309.5z"/>
	<path class="st16" d="M264.6,274.9c-12.9,11-16.6,29.5-17.4,42.7c11.7,18.2,27.4,33.4,45.8,44.4v-39.7c0-9.9-3.6-19.4-10.1-26.7
		L264.6,274.9z"/>
	<path class="st17" d="M282.9,295.5l-18.3-20.6c-12.9,11-16.6,29.5-17.4,42.7c8.4,13.1,18.9,24.6,31,34.1c0-13.7,0-31.2,0-38.7
		c0-3.3,3.7-7.3,9.3-11.2C286.1,299.5,284.6,297.4,282.9,295.5z"/>
	<path class="st18" d="M334.7,238l-35.1,109.7h-17.4l31-89c2.3-6.7,6-12.7,10.9-17.3c2.5-2.3,5.4-4.5,8.6-5.6
		C333.9,235.2,335.1,236.6,334.7,238L334.7,238z"/>
	<path class="st19" d="M299.6,347.6l16.1-50.3c-11.9,6.1-14.7-3.9-14.7-3.9l-18.8,54.2H299.6z"/>
	<path class="st18" d="M390.3,238l35.1,109.7h17.4l-31-89c-2.3-6.7-6-12.7-10.9-17.3c-2.5-2.3-5.4-4.5-8.6-5.6
		C391.1,235.2,389.9,236.6,390.3,238L390.3,238z"/>
	<path class="st19" d="M425.4,347.6l-16.1-50.3c11.9,6.1,14.7-3.9,14.7-3.9l18.8,54.2H425.4z"/>
	<path class="st16" d="M356.8,319.6h-24.1c-1,0-1.9,0.4-2.7,1v-2.9c0-2.6,1.5-4.7,3.3-4.7h22.9c1.8,0,3.3,2.1,3.3,4.7v2.9
		C358.7,319.9,357.8,319.6,356.8,319.6L356.8,319.6z"/>
	<g>
		<path class="st17" d="M345.9,317.7c0-2.6,1.5-4.7,3.3-4.7h-15.9c-1.8,0-3.3,2.1-3.3,4.7v2.9c0.8-0.6,1.7-1,2.7-1h13.2V317.7z"/>
	</g>
	<path class="st17" d="M356.8,318.7h-24.1c-3.1,0-5.7,2.6-5.7,5.8v20.1l35.4-20.7C362.1,320.9,359.7,318.7,356.8,318.7z"/>
	<path class="st20" d="M343,324.5c0-3.2,2.5-5.8,5.7-5.8h-16c-3.1,0-5.7,2.6-5.7,5.8v20.1l16-9.3V324.5z"/>
	<path class="st16" d="M327,345.7v-1.8l35.3-20.7c0,0,0,0,0,0c0.1,0.4,0.1,0.8,0.1,1.2v0v20.9l-0.6,0.3L327,345.7L327,345.7z"/>
	<path class="st17" d="M344.7,343.5l-1.8,1v-9.9l-16,9.3v1.8h17.7V343.5z"/>
	<path class="st9" d="M367.1,93.2c1.7,3,0.7,6.9-2.3,8.7c-3,1.8-6.9,0.7-8.6-2.3s-0.7-6.9,2.3-8.7C361.6,89.1,365.4,90.1,367.1,93.2
		L367.1,93.2z"/>
	<path class="st10" d="M333.9,144.9c0-22.4,7.6-41.3,18.1-47.5c-22.7,3.2-40.3,23-40.3,46.9v11.1h22.1L333.9,144.9L333.9,144.9z"/>
	<path class="st9" d="M370.9,97.1c10.7,5.9,18.6,25.1,18.6,47.8v10.4h23.7v-11.1C413.2,119.6,394.6,99.4,370.9,97.1z"/>
	<path class="st13" d="M389.8,155.3v-10.4c0-22.4-7.6-41.3-18.1-47.7c-1.7-0.2-3.5-0.3-5.3-0.3h-7.9c-2.5,0-4.9,0.2-7.3,0.6
		c-10.3,6.7-17.6,25.4-17.6,47.4v10.4H389.8z"/>
	<path class="st9" d="M350.6,143.2c1.3-0.8,1.4-2.7,0.2-3.6c-7.3-6.2-1.2-23.4,1.3-31.8c2.7-9.3,15.6-10.8,15.9-10.9
		c-0.5,0-1,0-1.5,0h-7.9c-2.5,0-4.9,0.2-7.3,0.6c-10.3,6.7-17.6,25.4-17.6,47.4v10.4h9.4C340.6,150.7,346.6,145.8,350.6,143.2z"/>
	<path class="st18" d="M413.2,148.5c-1.1-0.1-12.7,0.6-27.1-3.9c-15.4-4.9-31.8-5-47.2-0.3l-1.9,0.6c-13.2,4-24.7,3.6-25.1,3.6
		c-2.6,9.7,6,18.7,15.7,16.6c2.2-0.5,4.5-1.1,6.9-1.8l2.1-0.7c16.9-5.1,35-5,51.8,0.3c3.2,1,6.3,1.8,9.2,2.4
		C407.3,167.4,415.7,158.3,413.2,148.5L413.2,148.5z"/>
	<path class="st19" d="M338.8,144.3l-1.9,0.6c-13.2,4-24.7,3.6-25.1,3.6c-2.6,9.7,6,18.7,15.7,16.6c2.2-0.5,4.5-1.1,6.9-1.8l2.1-0.7
		c4-1.2,8-2.1,12-2.7c-0.2-0.3-0.5-0.5-0.8-0.6c-11-5.5-2.4-12.7,2.8-16.1c0.6-0.4,0.9-1,1-1.7C347.3,142.1,343,143,338.8,144.3z"/>
	<g>
		<path class="st21" d="M321.3,319.6h-24.1c-1,0-1.9,0.4-2.7,1v-2.9c0-2.6,1.5-4.7,3.3-4.7h22.9c1.8,0,3.3,2.1,3.3,4.7v2.9
			C323.2,319.9,322.3,319.6,321.3,319.6L321.3,319.6z"/>
		<g>
			<path class="st22" d="M310.4,317.7c0-2.6,1.5-4.7,3.3-4.7h-15.9c-1.8,0-3.3,2.1-3.3,4.7v2.9c0.8-0.6,1.7-1,2.7-1h13.2V317.7z"/>
		</g>
		<path class="st22" d="M321.3,318.7h-24.1c-3.1,0-5.7,2.6-5.7,5.8v20.1l35.4-20.7C326.7,320.9,324.3,318.7,321.3,318.7L321.3,318.7
			z"/>
		<path class="st23" d="M307.5,324.5c0-3.2,2.5-5.8,5.7-5.8h-16c-3.1,0-5.7,2.6-5.7,5.8v20.1l16-9.3V324.5z"/>
		<path class="st21" d="M291.6,345.7v-1.8l35.3-20.7c0,0,0,0,0,0c0.1,0.4,0.1,0.8,0.1,1.2v0v20.9l-0.6,0.3H291.6z"/>
		<path class="st22" d="M309.3,343.5l-1.8,1v-9.9l-16,9.3v1.8h17.7V343.5z"/>
	</g>
	<g>
		<path class="st24" d="M427.7,319.6h-24.1c-1,0-1.9,0.4-2.7,1v-2.9c0-2.6,1.5-4.7,3.3-4.7h22.9c1.8,0,3.3,2.1,3.3,4.7v2.9
			C429.6,319.9,428.7,319.6,427.7,319.6L427.7,319.6z"/>
		<g>
			<path class="st25" d="M416.8,317.7c0-2.6,1.5-4.7,3.3-4.7h-15.9c-1.8,0-3.3,2.1-3.3,4.7v2.9c0.8-0.6,1.7-1,2.7-1h13.2V317.7z"/>
		</g>
		<path class="st25" d="M427.7,318.7h-24.1c-3.1,0-5.7,2.6-5.7,5.8v20.1l35.4-20.7C433.1,320.9,430.7,318.7,427.7,318.7z"/>
		<path class="st26" d="M413.9,324.5c0-3.2,2.5-5.8,5.7-5.8h-16c-3.1,0-5.7,2.6-5.7,5.8v20.1l16-9.3L413.9,324.5z"/>
		<path class="st24" d="M397.9,345.7v-1.8l35.3-20.7c0,0,0,0,0,0c0.1,0.4,0.1,0.8,0.1,1.2v0v20.9l-0.6,0.3H397.9z"/>
		<path class="st25" d="M415.7,343.5l-1.8,1v-9.9l-16,9.3v1.8h17.7L415.7,343.5z"/>
	</g>
	<g>
		<path class="st18" d="M392.3,319.6h-24.1c-1,0-1.9,0.4-2.7,1v-2.9c0-2.6,1.5-4.7,3.3-4.7h22.9c1.8,0,3.3,2.1,3.3,4.7v2.9
			C394.2,319.9,393.2,319.6,392.3,319.6L392.3,319.6z"/>
		<g>
			<path class="st19" d="M381.3,317.7c0-2.6,1.5-4.7,3.3-4.7h-15.9c-1.8,0-3.3,2.1-3.3,4.7v2.9c0.8-0.6,1.7-1,2.7-1h13.2V317.7z"/>
		</g>
		<path class="st19" d="M392.3,318.7h-24.1c-3.1,0-5.7,2.6-5.7,5.8v20.1l35.4-20.7C397.6,320.9,395.2,318.7,392.3,318.7z"/>
		<path class="st27" d="M378.4,324.5c0-3.2,2.5-5.8,5.7-5.8h-16c-3.1,0-5.7,2.6-5.7,5.8v20.1l16-9.3L378.4,324.5z"/>
		<path class="st18" d="M362.5,345.7v-1.8l35.3-20.7c0,0,0,0,0,0c0.1,0.4,0.1,0.8,0.1,1.2v0v20.9l-0.6,0.3H362.5z"/>
		<path class="st19" d="M380.2,343.5l-1.8,1v-9.9l-16,9.3v1.8h17.7V343.5z"/>
	</g>
	<path class="st14" d="M441.9,348.2H283.1c-2.3,0-4.2,1.4-5,3.5c23.3,18.4,52.6,29.3,84.4,29.3s61.1-10.9,84.4-29.3
		C446.1,349.6,444.2,348.2,441.9,348.2z"/>
	<path class="st28" d="M278.1,351.7c16.1,12.7,35,21.8,55.6,26.3c0-4,0-8.6,0-12.3c0-8.7,9.3-11.1,9.3-11.1l-3.4-6.3h-56.5
		C280.8,348.2,278.9,349.6,278.1,351.7L278.1,351.7z"/>
	<path class="st29" d="M447.9,341.9H277.1c-2,0-3.6,1.6-3.6,3.7v2.3c2.7,2.3,5.5,4.5,8.3,6.6h161.4c2.9-2.1,5.6-4.3,8.3-6.6v-2.3
		C451.5,343.5,449.9,341.9,447.9,341.9L447.9,341.9z"/>
	<g>
		<path class="st14" d="M339.5,348.2c0-2.7,1.4-5,3.5-6.3h-65.9c-2,0-3.6,1.6-3.6,3.7v2.3c2.7,2.3,5.5,4.5,8.3,6.6H343
			C340.9,353.2,339.5,350.9,339.5,348.2L339.5,348.2z"/>
	</g>
</g>
</svg>
