<?xml version="1.0" encoding="utf-8"?>
<!-- Generator: Adobe Illustrator 23.0.3, SVG Export Plug-In . SVG Version: 6.00 Build 0)  -->
<svg version="1.1" id="Capa_1" xmlns="http://www.w3.org/2000/svg" xmlns:xlink="http://www.w3.org/1999/xlink" x="0px" y="0px"
	 viewBox="0 0 512 512" style="enable-background:new 0 0 512 512;" xml:space="preserve">
<style type="text/css">
	.st0{opacity:0.1;fill:#2626BC;enable-background:new    ;}
	.st1{fill:url(#SVGID_1_);}
	.st2{fill:#FFFFFF;}
	.st3{fill:#DCFDEE;}
	.st4{fill:#2626BC;}
	.st5{fill:#8399FE;}
	.st6{fill:#01ECA5;}
	.st7{fill:#6583FE;}
	.st8{fill:#4369FD;}
	.st9{fill:#00ECA2;}
	.st10{fill:#FF7EB8;}
	.st11{fill:#31C9AC;}
	.st12{fill:#FF4155;}
	.st13{fill:#E80054;}
	.st14{fill:#FCAD6D;}
	.st15{fill:#FD995B;}
	.st16{fill:#FF7186;}
	.st17{fill:#A05838;}
	.st18{fill:#F9BA8F;}
	.st19{fill:#E9EFFF;}
	.st20{fill:#BEC8F7;}
	.st21{fill:#FFDD40;}
	.st22{fill:#FFB332;}
	.st23{fill:#A3B3EF;}
	.st24{fill:#49D88B;}
	.st25{fill:#38C674;}
	.st26{fill:#24B55E;}
	.st27{fill:#73C3F9;}
	.st28{fill:#4FABF7;}
	.st29{fill:#2E8BE6;}
	.st30{fill:#FF9100;}
	.st31{fill:#823C26;}
	.st32{fill:#B76C4E;}
</style>
<path class="st0" d="M373.6,146.8C373.6,146.8,373.6,146.8,373.6,146.8l0-78.4c0-5.5-4.5-10-10-10H148.5c-5.5,0-10,4.5-10,10v407.8
	c0,3.7,3.9,6.1,7.3,4.5l14-7.1c1.4-0.7,3.1-0.7,4.6,0l19,9.7c1.4,0.7,3.1,0.7,4.6,0l19-9.7c1.4-0.7,3.1-0.7,4.5,0l19,9.7
	c1.4,0.7,3.1,0.7,4.5,0l19-9.7c1.4-0.7,3.1-0.7,4.6,0l19,9.7c1.4,0.7,3.1,0.7,4.5,0l19-9.7c1.4-0.7,3.1-0.7,4.5,0l19,9.7
	c1.4,0.7,3.1,0.7,4.5,0l19-9.7c1.4-0.7,3.1-0.7,4.5,0l14,7.1c3.3,1.7,7.3-0.7,7.3-4.5V253.3h0c29.4,0,53.3-23.9,53.3-53.3
	C426.8,170.6,403,146.8,373.6,146.8L373.6,146.8z"/>
<g>
	<g>
		
			<linearGradient id="SVGID_1_" gradientUnits="userSpaceOnUse" x1="-9.0131" y1="361.0038" x2="466.0199" y2="132.7148" gradientTransform="matrix(1 0 0 -1 0 514)">
			<stop  offset="0" style="stop-color:#C6D1FF"/>
			<stop  offset="0.5834" style="stop-color:#E6D5F4"/>
			<stop  offset="0.997" style="stop-color:#FFD9EC"/>
		</linearGradient>
		<path class="st1" d="M471.5,133.3C406.1,83,342.6,124,271.8,109.5C200.6,94.9,172.2,46.3,91,68.8C19,88.6-24.6,168.3,14.9,235
			c11.3,19,30.5,33.4,38.3,54.6c12.7,34.3-6.6,60.7-2.8,94.4C66,524.1,280,469.8,358.7,426.2C482.2,357.9,565.7,205.8,471.5,133.3z"
			/>
	</g>
	<g>
		<g>
			<path class="st2" d="M373.5,43.3v407.8c0,3.7-3.9,6.2-7.3,4.5l-14-7.1c-1.4-0.7-3.1-0.7-4.5,0l-19,9.7c-1.4,0.7-3.1,0.7-4.5,0
				l-19-9.7c-1.4-0.7-3.1-0.7-4.5,0l-19,9.7c-1.4,0.7-3.1,0.7-4.5,0l-19-9.7c-1.4-0.7-3.1-0.7-4.6,0l-19,9.7c-1.4,0.7-3.1,0.7-4.5,0
				l-19-9.7c-1.4-0.7-3.1-0.7-4.5,0l-19,9.7c-1.4,0.7-3.1,0.7-4.6,0l-19-9.7c-1.4-0.7-3.1-0.7-4.6,0l-14,7.1
				c-3.3,1.7-7.3-0.7-7.3-4.5V43.3c0-5.5,4.5-10,10-10h215.1C369.1,33.3,373.6,37.8,373.5,43.3L373.5,43.3z"/>
			<path class="st3" d="M373.5,144.6v106.5c-29.4,0-53.3-23.9-53.3-53.3S344.1,144.6,373.5,144.6z"/>
			<path class="st4" d="M279.5,463.7c-1.6,0-3.1-0.4-4.5-1.1l-19-9.7l-19,9.7c-2.8,1.5-6.2,1.5-9.1,0l-19-9.7l-19,9.7
				c-2.8,1.5-6.2,1.5-9.1,0l-19-9.7l-14,7.1c-3.1,1.6-6.8,1.5-9.8-0.4s-4.8-5-4.8-8.5V43.3c0-8.3,6.7-15,15-15h49c2.8,0,5,2.2,5,5
				s-2.2,5-5,5h-49c-2.8,0-5,2.2-5,5v407.8l14-7.1c2.8-1.5,6.2-1.5,9.1,0l19,9.7l19-9.7c2.8-1.5,6.2-1.5,9.1,0l19,9.7l19-9.7
				c2.8-1.5,6.2-1.5,9.1,0l19,9.7l19-9.7c2.8-1.5,6.2-1.5,9.1,0l19,9.7l19-9.7c2.8-1.5,6.2-1.5,9.1,0l14,7.1V257.9c0-2.8,2.2-5,5-5
				s5,2.2,5,5v193.2c0,3.5-1.8,6.7-4.8,8.5c-3,1.8-6.6,2-9.8,0.4l-14-7.1l-19,9.7c-2.8,1.5-6.2,1.5-9.1,0l-19-9.7l-19,9.7
				C282.6,463.3,281.1,463.7,279.5,463.7L279.5,463.7z"/>
		</g>
		<g>
			<g>
				<g>
					<path class="st5" d="M261,217.9h-86.5c-2.8,0-5-2.2-5-5s2.2-5,5-5H261c2.8,0,5,2.2,5,5S263.8,217.9,261,217.9z"/>
				</g>
				<g>
					<path class="st6" d="M186,197.9h-11.5c-2.8,0-5-2.2-5-5s2.2-5,5-5H186c2.8,0,5,2.2,5,5S188.8,197.9,186,197.9z"/>
				</g>
			</g>
			<g>
				<g>
					<path class="st5" d="M281,263.3H174.5c-2.8,0-5-2.2-5-5s2.2-5,5-5H281c2.8,0,5,2.2,5,5C286,261.1,283.8,263.3,281,263.3z"/>
				</g>
				<g>
					<path class="st6" d="M186,243.3h-11.5c-2.8,0-5-2.2-5-5s2.2-5,5-5H186c2.8,0,5,2.2,5,5S188.8,243.3,186,243.3z"/>
				</g>
			</g>
			<g>
				<g>
					<path class="st5" d="M271,308.7h-96.5c-2.8,0-5-2.2-5-5s2.2-5,5-5H271c2.8,0,5,2.2,5,5S273.8,308.7,271,308.7z"/>
				</g>
				<g>
					<path class="st6" d="M186,288.7h-11.5c-2.8,0-5-2.2-5-5s2.2-5,5-5H186c2.8,0,5,2.2,5,5S188.8,288.7,186,288.7z"/>
				</g>
			</g>
			<g>
				<g>
					<path class="st5" d="M231,354.1h-56.5c-2.8,0-5-2.2-5-5s2.2-5,5-5H231c2.8,0,5,2.2,5,5S233.8,354.1,231,354.1z"/>
				</g>
				<g>
					<path class="st5" d="M276.8,354.1h-21.5c-2.8,0-5-2.2-5-5s2.2-5,5-5h21.5c2.8,0,5,2.2,5,5S279.5,354.1,276.8,354.1z"/>
				</g>
				<g>
					<path class="st6" d="M186,334.1h-11.5c-2.8,0-5-2.2-5-5s2.2-5,5-5H186c2.8,0,5,2.2,5,5S188.8,334.1,186,334.1z"/>
				</g>
			</g>
			<g>
				<g>
					<g>
						<path class="st5" d="M334.6,217.9h-16.5c-2.8,0-5-2.2-5-5s2.2-5,5-5h16.5c2.8,0,5,2.2,5,5S337.4,217.9,334.6,217.9z"/>
					</g>
				</g>
				<g>
					<g>
						<path class="st7" d="M339.6,212.9c0,2.8-2.2,5-5,5h-10.5c-1.3-3.2-2.3-6.5-3-10h13.4C337.4,207.9,339.6,210.1,339.6,212.9
							L339.6,212.9z"/>
					</g>
				</g>
				<g>
					<g>
						<path class="st5" d="M334.6,263.3h-16.5c-2.8,0-5-2.2-5-5s2.2-5,5-5h16.5c2.8,0,5,2.2,5,5
							C339.6,261.1,337.4,263.3,334.6,263.3z"/>
					</g>
				</g>
				<g>
					<g>
						<path class="st5" d="M334.6,308.7h-16.5c-2.8,0-5-2.2-5-5s2.2-5,5-5h16.5c2.8,0,5,2.2,5,5S337.4,308.7,334.6,308.7z"/>
					</g>
				</g>
				<g>
					<g>
						<path class="st5" d="M334.6,354.1h-16.5c-2.8,0-5-2.2-5-5s2.2-5,5-5h16.5c2.8,0,5,2.2,5,5S337.4,354.1,334.6,354.1z"/>
					</g>
				</g>
			</g>
			<g>
				<path class="st6" d="M333,334.2c-2.8,0-5-2.2-5-5V329c0-2.8,2.2-5,5-5s5,2.2,5,5v0.1C338,331.9,335.7,334.2,333,334.2z"/>
			</g>
			<g>
				<g>
					<path class="st5" d="M334.6,412h-24.1c-2.8,0-5-2.2-5-5s2.2-5,5-5h24.1c2.8,0,5,2.2,5,5S337.4,412,334.6,412L334.6,412z"/>
				</g>
			</g>
			<g>
				<g>
					<path class="st5" d="M208.6,412h-34.1c-2.8,0-5-2.2-5-5s2.2-5,5-5h34.1c2.8,0,5,2.2,5,5S211.4,412,208.6,412z"/>
				</g>
			</g>
			<g>
				<path class="st6" d="M333,288.7c-2.8,0-5-2.2-5-5v-0.1c0-2.8,2.2-5,5-5s5,2.2,5,5v0.1C338,286.5,335.7,288.7,333,288.7z"/>
			</g>
			<g>
				<path class="st6" d="M333,243.3c-2.8,0-5-2.2-5-5v-0.1c0-2.8,2.2-5,5-5s5,2.2,5,5v0.1C338,241.1,335.7,243.3,333,243.3z"/>
			</g>
			<g>
				<path class="st6" d="M333,197.9c-2.8,0-5-2.2-5-5v-0.1c0-2.8,2.2-5,5-5s5,2.2,5,5v0.1C338,195.7,335.7,197.9,333,197.9z"/>
			</g>
		</g>
		<g>
			<g>
				<circle class="st6" cx="373.6" cy="175" r="53.3"/>
				<path class="st4" d="M378.6,117V43.3c0-8.3-6.7-15-15-15H226.7c-2.8,0-5,2.2-5,5s2.2,5,5,5h136.9c2.8,0,5,2.2,5,5V117
					c-29.8,2.5-53.3,27.6-53.3,58c0,32.1,26.1,58.3,58.3,58.3s58.3-26.1,58.3-58.3C431.8,144.6,408.3,119.5,378.6,117z M373.6,223.3
					c-26.6,0-48.3-21.7-48.3-48.3s21.7-48.3,48.3-48.3s48.3,21.7,48.3,48.3S400.2,223.3,373.6,223.3z"/>
			</g>
			<path class="st2" d="M380.1,170h-1.5v-10.2h9.5c2.8,0,5-2.2,5-5s-2.2-5-5-5h-9.5v-2.5c0-2.8-2.2-5-5-5s-5,2.2-5,5v2.5H367
				c-8.3,0-15.1,6.8-15.1,15.1S358.7,180,367,180h1.5v10.2h-9.5c-2.8,0-5,2.2-5,5s2.2,5,5,5h9.5v2.5c0,2.8,2.2,5,5,5s5-2.2,5-5v-2.5
				h1.5c8.3,0,15.1-6.8,15.1-15.1S388.4,170,380.1,170z M367,170c-2.8,0-5.1-2.3-5.1-5.1s2.3-5.1,5.1-5.1h1.5V170H367z M380.1,190.2
				h-1.5V180h1.5c2.8,0,5.1,2.3,5.1,5.1S382.9,190.2,380.1,190.2z"/>
		</g>
		<g>
			<path class="st5" d="M276.8,158.7h-41.5c-2.8,0-5-2.2-5-5s2.2-5,5-5h41.5c2.8,0,5,2.2,5,5S279.5,158.7,276.8,158.7z"/>
		</g>
		<g>
			<path class="st8" d="M304.3,121.8h-96.5c-2.8,0-5-2.2-5-5s2.2-5,5-5h96.5c2.8,0,5,2.2,5,5S307,121.8,304.3,121.8z"/>
		</g>
		<g>
			<path class="st8" d="M329.3,99.8H182.7c-2.8,0-5-2.2-5-5s2.2-5,5-5h146.5c2.8,0,5,2.2,5,5S332,99.8,329.3,99.8z"/>
		</g>
		<g>
			<path class="st6" d="M186,77.9h-11.5c-2.8,0-5-2.2-5-5s2.2-5,5-5H186c2.8,0,5,2.2,5,5S188.8,77.9,186,77.9z"/>
		</g>
	</g>
	<path class="st9" d="M411.2,82.4c-3.7,0-7.4-1.4-10.3-4.2c-5.7-5.7-5.7-14.9,0-20.5s14.9-5.7,20.5,0c5.7,5.7,5.7,14.9,0,20.5
		C418.6,81,414.9,82.4,411.2,82.4L411.2,82.4z M411.2,63.4c-1.2,0-2.3,0.4-3.2,1.3c-1.8,1.8-1.8,4.6,0,6.4c1.8,1.8,4.6,1.8,6.4,0
		c1.8-1.8,1.8-4.6,0-6.4C413.5,63.8,412.3,63.4,411.2,63.4z"/>
	<path class="st10" d="M436.3,131.3c-3.7,0-7.4-1.4-10.3-4.2c-2.7-2.7-4.2-6.4-4.2-10.3s1.5-7.5,4.2-10.3c5.7-5.7,14.9-5.7,20.5,0
		c2.7,2.7,4.2,6.4,4.2,10.3c0,3.9-1.5,7.5-4.2,10.3C443.7,129.9,440,131.3,436.3,131.3z M436.3,112.3c-1.2,0-2.3,0.4-3.2,1.3
		c-0.9,0.8-1.3,2-1.3,3.2s0.5,2.3,1.3,3.2c1.8,1.8,4.6,1.8,6.4,0c0.9-0.8,1.3-2,1.3-3.2s-0.5-2.3-1.3-3.2
		C438.6,112.7,437.5,112.3,436.3,112.3z"/>
	<path class="st10" d="M105.4,236.8c-3.7,0-7.4-1.4-10.3-4.2c-5.7-5.7-5.7-14.9,0-20.5c5.7-5.7,14.9-5.7,20.5,0
		c5.7,5.7,5.7,14.9,0,20.5C112.8,235.3,109.1,236.8,105.4,236.8z M105.4,217.8c-1.2,0-2.3,0.4-3.2,1.3c-1.8,1.8-1.8,4.6,0,6.4
		c1.8,1.8,4.6,1.8,6.4,0c1.8-1.8,1.8-4.6,0-6.4C107.7,218.2,106.5,217.8,105.4,217.8z"/>
	<path class="st7" d="M98.9,281.7c-1.3,0-2.6-0.5-3.5-1.5l-6-6l-6,6c-2,2-5.1,2-7.1,0c-2-2-2-5.1,0-7.1l9.5-9.5c2-2,5.1-2,7.1,0
		l9.5,9.5c2,2,2,5.1,0,7.1C101.5,281.2,100.2,281.7,98.9,281.7z"/>
	<path class="st9" d="M426.8,426.5c-1.3,0-2.6-0.5-3.5-1.5l-6-6l-6,6c-2,2-5.1,2-7.1,0c-2-2-2-5.1,0-7.1l9.5-9.5c2-2,5.1-2,7.1,0
		l9.5,9.5c2,2,2,5.1,0,7.1C429.4,426,428.1,426.5,426.8,426.5z"/>
</g>
<g>
	<path class="st11" d="M265.5,441.1c14.2-21.9,22.5-48.2,22.5-76.4c0-76.9-61.6-139.2-137.5-139.2S13,287.8,13,364.8
		c0,28.2,8.3,54.4,22.5,76.4h230V441.1z"/>
	<path class="st12" d="M79.6,445.2v26h141.7v-26c0-9.9,3.6-19.4,10.1-26.7l17.7-20c-3.8-3.4-8.3-6.1-13.9-7.9l-39.4-15.2
		c-6.4,13.3-24.3,22.8-45.4,22.8s-39-9.6-45.4-22.8l-39.4,15.2c-5.6,1.7-10.1,4.5-13.9,7.9l17.7,20C76,425.8,79.6,435.4,79.6,445.2
		L79.6,445.2z"/>
	<path class="st13" d="M74.4,425.4c13.4-10,39.1-20.6,46.9-23.8c1.4-0.6,2.6-1.7,3.2-3.2c0.7-1.7,1.4-3.3,2.2-4.6
		c-10-4-17.8-10.6-21.5-18.4l-39.4,15.2c-5.6,1.7-10.1,4.5-13.9,7.9l17.7,20C71.4,420.6,73,422.9,74.4,425.4z"/>
	<path class="st14" d="M150.5,398.4c21.1,0,39-9.6,45.4-22.8c-3.8-1.4-7.7-2.5-11.8-3.5c-5.2-5.3-6.5-15.2-6.7-22.2
		c-2.7,3.2-5.6,5.9-8.3,8c-5.3,4.2-11.8,6.4-18.6,6.4c-6.7,0-13.3-2.3-18.6-6.4c-2.7-2.1-5.6-4.8-8.3-8c-0.2,7-1.6,16.9-6.7,22.2
		c-4.1,0.9-8,2.1-11.8,3.5C111.5,388.8,129.4,398.4,150.5,398.4L150.5,398.4z"/>
	<path class="st15" d="M131.9,357.8c-2.7-2.1-5.6-4.8-8.3-8c-0.2,7-1.6,16.9-6.7,22.2c-4.1,0.9-8,2.1-11.8,3.5
		c3.8,7.8,11.5,14.3,21.5,18.4c4.5-7.8,9.5-8.8,12.5-8.5c1.9,0.2,3.8-0.6,5-2.2c5.1-6.8,6.2-14.9,6.3-18.9
		C143.7,364.3,137.2,362,131.9,357.8L131.9,357.8z"/>
	<path class="st16" d="M154.4,432.5h-7.9c-3.2,0-5.8-2.6-5.8-5.8v-30.9h19.4v30.9C160.2,429.9,157.6,432.5,154.4,432.5L154.4,432.5z
		"/>
	<path class="st17" d="M102.1,282.5c0.6,4.2,1.2,7,1.2,7c1.4,0.1,2.9,0.7,4,1.2c0.2-1.3,0.5-2.5,0.9-3.7
		C105.8,286.1,103.7,284.5,102.1,282.5L102.1,282.5z"/>
	<path class="st17" d="M191.9,287.5c0.3,1.1,0.6,2.1,0.7,3.2c1.4-0.7,3.4-1.4,5.1-1.2c0.1-1.9,0.1-3.9,0.2-5.8
		C196.3,285.5,194.3,286.8,191.9,287.5L191.9,287.5z"/>
	<path class="st14" d="M201.3,289.8c-2.1-1.9-6.3-1-8.1,0.2c0.4,2.5,0.4,5.1,0.1,7.6l-2.1,15.7c0,1.3,0,2.5-0.1,3.7
		c5.2,1.6,7.8-3.1,8.2-6.4c0.2-1.4,0.5-2.8,0.9-4.1C201.5,302.2,206.5,294.7,201.3,289.8L201.3,289.8z"/>
	<path class="st15" d="M197.2,303.6c-1.7,0-3.3-0.5-4.6-1.4l-1.5,11.1c0,1.3,0,2.5-0.1,3.7c5.2,1.6,7.8-3.1,8.2-6.4
		c0.2-1.4,0.5-2.8,0.9-4.1c0.4-1.3,1.1-2.8,1.8-4.5C200.6,303,199,303.6,197.2,303.6z"/>
	<path class="st14" d="M99.7,289.8c2.1-1.9,6.3-1,8.1,0.2c-0.4,2.5-0.4,5.1-0.1,7.6l2.1,15.7c0,1.3,0,2.5,0.1,3.7
		c-5.2,1.6-7.8-3.1-8.2-6.4c-0.2-1.4-0.5-2.8-0.9-4.1C99.4,302.2,94.5,294.7,99.7,289.8z"/>
	<path class="st15" d="M108.4,302.2c-1.3,0.9-2.9,1.4-4.6,1.4c-1.8,0-3.4-0.6-4.7-1.6c0.7,1.7,1.4,3.2,1.8,4.5
		c0.4,1.3,0.7,2.7,0.9,4.1c0.4,3.2,3,8,8.2,6.4c-0.1-1.2-0.1-2.5-0.1-3.7L108.4,302.2z"/>
	<g>
		<path class="st18" d="M176.4,284.6c-29.7-9.4-51,0-60.9,2.1c-2.7,0.6-5.2,0.3-7.5-0.5c-1.1,3.6-1.5,7.5-0.9,11.4l2.1,15.6
			c0,26.1,15.6,41.2,22.3,46.5c5.6,4.4,12.3,6.6,19,6.6s13.4-2.2,19-6.6c6.7-5.3,22.3-20.4,22.3-46.4l2.1-15.7
			c0.5-3.9,0.2-7.7-0.9-11.3C188.7,288.1,184.8,287.3,176.4,284.6z"/>
	</g>
	<g>
		<path class="st14" d="M161.1,359.4c-6.7-5.6-22.3-21.8-22.3-49.7l-2.1-16.7c-0.5-3.9-0.2-7.8,0.7-11.4c-9.7,1.5-17.1,4.2-21.8,5.2
			c-2.7,0.6-5.2,0.3-7.5-0.5c-1.1,3.6-1.5,7.5-0.9,11.4l2.1,15.6c0,26.1,15.6,41.2,22.3,46.5c5.6,4.4,12.3,6.6,19,6.6
			c5.2,0,10.3-1.3,15-3.9C163.9,361.6,162.5,360.6,161.1,359.4L161.1,359.4z"/>
	</g>
	<g>
		<path class="st19" d="M141.7,386c-13.8-6-19.9-13.4-22.5-18.4l-7.4,23c7.4,7.9,15.8,13,21.3,15.9c3.3,1.7,7.3,0.4,9-2.9l3.4-6.7
			C147.6,392.9,145.9,387.8,141.7,386L141.7,386z"/>
	</g>
	<path class="st20" d="M119.2,367.6l-7.4,23c3.7,3.9,7.6,7.2,11.3,9.8c0.6-0.5,1-1.2,1.3-1.9c4.9-12,11.2-13.4,14.7-13.1
		c0.4,0,0.8,0,1.1,0C127.5,379.5,121.8,372.4,119.2,367.6z"/>
	<g>
		<path class="st19" d="M181.8,367.6c-2.7,5-8.7,12.4-22.5,18.4c-4.2,1.8-5.9,6.9-3.8,11l3.4,6.7c1.7,3.3,5.7,4.6,9,2.9
			c5.5-2.9,13.8-8,21.3-15.9L181.8,367.6z"/>
	</g>
	<path class="st19" d="M248.4,397.9l-18.3,20.6c-6.5,7.3-10.1,16.8-10.1,26.7v39.7c18.5-11,34.2-26.2,45.8-44.4
		C265,427.4,261.3,408.9,248.4,397.9z"/>
	<path class="st20" d="M222.1,432.5c-1.4,4.1-2.1,8.4-2.1,12.7v39.7c6.7-4,13-8.5,19-13.6C236.1,443,222.1,432.5,222.1,432.5
		L222.1,432.5z"/>
	<path class="st19" d="M52.6,397.9c-12.9,11-16.6,29.5-17.4,42.7C46.9,458.8,62.6,474,81,485v-39.7c0-9.9-3.6-19.4-10.1-26.7
		L52.6,397.9z"/>
	<path class="st20" d="M70.9,418.5l-18.3-20.6c-12.9,11-16.6,29.5-17.4,42.7c8.4,13.1,18.9,24.6,31,34.1c0-13.7,0-31.2,0-38.7
		c0-3.3,3.7-7.3,9.3-11.2C74.1,422.5,72.6,420.4,70.9,418.5z"/>
	<path class="st21" d="M122.7,361L87.6,470.7H70.2l31-89c2.3-6.7,6-12.7,10.9-17.3c2.5-2.3,5.4-4.5,8.6-5.6
		C121.9,358.2,123.1,359.6,122.7,361L122.7,361z"/>
	<path class="st22" d="M87.6,470.6l16.1-50.3c-11.9,6.1-14.7-3.9-14.7-3.9l-18.8,54.2L87.6,470.6L87.6,470.6z"/>
	<path class="st21" d="M178.3,361l35.1,109.7h17.4l-31-89c-2.3-6.7-6-12.7-10.9-17.3c-2.5-2.3-5.4-4.5-8.6-5.6
		C179.1,358.2,177.9,359.6,178.3,361L178.3,361z"/>
	<path class="st22" d="M213.4,470.6l-16.1-50.3c11.9,6.1,14.7-3.9,14.7-3.9l18.8,54.2L213.4,470.6L213.4,470.6z"/>
	<path class="st19" d="M144.8,442.6h-24.1c-1,0-1.9,0.4-2.7,1v-2.9c0-2.6,1.5-4.7,3.3-4.7h22.9c1.8,0,3.3,2.1,3.3,4.7v2.9
		C146.7,442.9,145.8,442.6,144.8,442.6L144.8,442.6z"/>
	<g>
		<path class="st20" d="M133.9,440.7c0-2.6,1.5-4.7,3.3-4.7h-15.9c-1.8,0-3.3,2.1-3.3,4.7v2.9c0.8-0.6,1.7-1,2.7-1h13.2L133.9,440.7
			L133.9,440.7z"/>
	</g>
	<path class="st20" d="M144.8,441.7h-24.1c-3.1,0-5.7,2.6-5.7,5.8v20.1l35.4-20.7C150.1,443.9,147.7,441.7,144.8,441.7z"/>
	<path class="st23" d="M131,447.5c0-3.2,2.5-5.8,5.7-5.8h-16c-3.1,0-5.7,2.6-5.7,5.8v20.1l16-9.3V447.5z"/>
	<path class="st19" d="M115,468.7v-1.8l35.3-20.7l0,0c0.1,0.4,0.1,0.8,0.1,1.2l0,0v20.9l-0.6,0.3L115,468.7L115,468.7z"/>
	<path class="st20" d="M132.7,466.5l-1.8,1v-9.9l-16,9.3v1.8h17.7L132.7,466.5L132.7,466.5z"/>
	<path class="st12" d="M155.1,216.2c1.7,3,0.7,6.9-2.3,8.7c-3,1.8-6.9,0.7-8.6-2.3s-0.7-6.9,2.3-8.7
		C149.6,212.1,153.4,213.1,155.1,216.2L155.1,216.2z"/>
	<path class="st13" d="M121.9,267.9c0-22.4,7.6-41.3,18.1-47.5c-22.7,3.2-40.3,23-40.3,46.9v11.1h22.1L121.9,267.9L121.9,267.9z"/>
	<path class="st12" d="M158.9,220.1c10.7,5.9,18.6,25.1,18.6,47.8v10.4h23.7v-11.1C201.2,242.6,182.6,222.4,158.9,220.1z"/>
	<path class="st16" d="M177.8,278.3v-10.4c0-22.4-7.6-41.3-18.1-47.7c-1.7-0.2-3.5-0.3-5.3-0.3h-7.9c-2.5,0-4.9,0.2-7.3,0.6
		c-10.3,6.7-17.6,25.4-17.6,47.4v10.4H177.8z"/>
	<path class="st12" d="M138.6,266.2c1.3-0.8,1.4-2.7,0.2-3.6c-7.3-6.2-1.2-23.4,1.3-31.8c2.7-9.3,15.6-10.8,15.9-10.9
		c-0.5,0-1,0-1.5,0h-7.9c-2.5,0-4.9,0.2-7.3,0.6c-10.3,6.7-17.6,25.4-17.6,47.4v10.4h9.4C128.6,273.7,134.6,268.8,138.6,266.2z"/>
	<path class="st21" d="M201.2,271.5c-1.1-0.1-12.7,0.6-27.1-3.9c-15.4-4.9-31.8-5-47.2-0.3l-1.9,0.6c-13.2,4-24.7,3.6-25.1,3.6
		c-2.6,9.7,6,18.7,15.7,16.6c2.2-0.5,4.5-1.1,6.9-1.8l2.1-0.7c16.9-5.1,35-5,51.8,0.3c3.2,1,6.3,1.8,9.2,2.4
		C195.3,290.4,203.7,281.3,201.2,271.5L201.2,271.5z"/>
	<path class="st22" d="M126.8,267.3l-1.9,0.6c-13.2,4-24.7,3.6-25.1,3.6c-2.6,9.7,6,18.7,15.7,16.6c2.2-0.5,4.5-1.1,6.9-1.8l2.1-0.7
		c4-1.2,8-2.1,12-2.7c-0.2-0.3-0.5-0.5-0.8-0.6c-11-5.5-2.4-12.7,2.8-16.1c0.6-0.4,0.9-1,1-1.7C135.3,265.1,131,266,126.8,267.3z"/>
	<g>
		<path class="st24" d="M109.3,442.6H85.2c-1,0-1.9,0.4-2.7,1v-2.9c0-2.6,1.5-4.7,3.3-4.7h22.9c1.8,0,3.3,2.1,3.3,4.7v2.9
			C111.2,442.9,110.3,442.6,109.3,442.6L109.3,442.6z"/>
		<g>
			<path class="st25" d="M98.4,440.7c0-2.6,1.5-4.7,3.3-4.7H85.8c-1.8,0-3.3,2.1-3.3,4.7v2.9c0.8-0.6,1.7-1,2.7-1h13.2L98.4,440.7
				L98.4,440.7z"/>
		</g>
		<path class="st25" d="M109.3,441.7H85.2c-3.1,0-5.7,2.6-5.7,5.8v20.1l35.4-20.7C114.7,443.9,112.3,441.7,109.3,441.7L109.3,441.7z
			"/>
		<path class="st26" d="M95.5,447.5c0-3.2,2.5-5.8,5.7-5.8h-16c-3.1,0-5.7,2.6-5.7,5.8v20.1l16-9.3V447.5z"/>
		<path class="st24" d="M79.6,468.7v-1.8l35.3-20.7l0,0c0.1,0.4,0.1,0.8,0.1,1.2l0,0v20.9l-0.6,0.3H79.6V468.7z"/>
		<path class="st25" d="M97.3,466.5l-1.8,1v-9.9l-16,9.3v1.8h17.7L97.3,466.5L97.3,466.5z"/>
	</g>
	<g>
		<path class="st27" d="M215.7,442.6h-24.1c-1,0-1.9,0.4-2.7,1v-2.9c0-2.6,1.5-4.7,3.3-4.7h22.9c1.8,0,3.3,2.1,3.3,4.7v2.9
			C217.6,442.9,216.7,442.6,215.7,442.6L215.7,442.6z"/>
		<g>
			<path class="st28" d="M204.8,440.7c0-2.6,1.5-4.7,3.3-4.7h-15.9c-1.8,0-3.3,2.1-3.3,4.7v2.9c0.8-0.6,1.7-1,2.7-1h13.2
				L204.8,440.7L204.8,440.7z"/>
		</g>
		<path class="st28" d="M215.7,441.7h-24.1c-3.1,0-5.7,2.6-5.7,5.8v20.1l35.4-20.7C221.1,443.9,218.7,441.7,215.7,441.7z"/>
		<path class="st29" d="M201.9,447.5c0-3.2,2.5-5.8,5.7-5.8h-16c-3.1,0-5.7,2.6-5.7,5.8v20.1l16-9.3V447.5z"/>
		<path class="st27" d="M185.9,468.7v-1.8l35.3-20.7l0,0c0.1,0.4,0.1,0.8,0.1,1.2l0,0v20.9l-0.6,0.3h-34.8V468.7z"/>
		<path class="st28" d="M203.7,466.5l-1.8,1v-9.9l-16,9.3v1.8h17.7L203.7,466.5z"/>
	</g>
	<g>
		<path class="st21" d="M180.3,442.6h-24.1c-1,0-1.9,0.4-2.7,1v-2.9c0-2.6,1.5-4.7,3.3-4.7h22.9c1.8,0,3.3,2.1,3.3,4.7v2.9
			C182.2,442.9,181.2,442.6,180.3,442.6L180.3,442.6z"/>
		<g>
			<path class="st22" d="M169.3,440.7c0-2.6,1.5-4.7,3.3-4.7h-15.9c-1.8,0-3.3,2.1-3.3,4.7v2.9c0.8-0.6,1.7-1,2.7-1h13.2
				L169.3,440.7L169.3,440.7z"/>
		</g>
		<path class="st22" d="M180.3,441.7h-24.1c-3.1,0-5.7,2.6-5.7,5.8v20.1l35.4-20.7C185.6,443.9,183.2,441.7,180.3,441.7z"/>
		<path class="st30" d="M166.4,447.5c0-3.2,2.5-5.8,5.7-5.8h-16c-3.1,0-5.7,2.6-5.7,5.8v20.1l16-9.3V447.5z"/>
		<path class="st21" d="M150.5,468.7v-1.8l35.3-20.7l0,0c0.1,0.4,0.1,0.8,0.1,1.2l0,0v20.9l-0.6,0.3h-34.8V468.7z"/>
		<path class="st22" d="M168.2,466.5l-1.8,1v-9.9l-16,9.3v1.8h17.7L168.2,466.5L168.2,466.5z"/>
	</g>
	<path class="st17" d="M229.9,471.2H71.1c-2.3,0-4.2,1.4-5,3.5c23.3,18.4,52.6,29.3,84.4,29.3s61.1-10.9,84.4-29.3
		C234.1,472.6,232.2,471.2,229.9,471.2z"/>
	<path class="st31" d="M66.1,474.7c16.1,12.7,35,21.8,55.6,26.3c0-4,0-8.6,0-12.3c0-8.7,9.3-11.1,9.3-11.1l-3.4-6.3H71.1
		C68.8,471.2,66.9,472.6,66.1,474.7L66.1,474.7z"/>
	<path class="st32" d="M235.9,464.9H65.1c-2,0-3.6,1.6-3.6,3.7v2.3c2.7,2.3,5.5,4.5,8.3,6.6h161.4c2.9-2.1,5.6-4.3,8.3-6.6v-2.3
		C239.5,466.5,237.9,464.9,235.9,464.9L235.9,464.9z"/>
	<g>
		<path class="st17" d="M127.5,471.2c0-2.7,1.4-5,3.5-6.3H65.1c-2,0-3.6,1.6-3.6,3.7v2.3c2.7,2.3,5.5,4.5,8.3,6.6H131
			C128.9,476.2,127.5,473.9,127.5,471.2L127.5,471.2z"/>
	</g>
</g>
</svg>
